<svg width="20" height="16" viewBox="0 0 20 16" fill="none" xmlns="http://www.w3.org/2000/svg">
<path d="M16.626 4.57C16.6496 4.59883 16.6718 4.62396 16.6921 4.65056C16.8433 4.84863 16.9937 5.04744 17.1448 5.24551C17.3174 5.47166 17.5472 5.58289 17.8307 5.57772C17.9441 5.57587 18.0576 5.56405 18.171 5.55555C18.3088 5.5452 18.447 5.53559 18.5845 5.52303C18.8384 5.49975 19.042 5.38556 19.1857 5.17419C19.355 4.92549 19.3494 4.58405 19.1551 4.33757C19.1285 4.30394 19.1004 4.27105 19.0741 4.23669C19.0656 4.2256 19.0608 4.21119 19.0538 4.19789C19.1307 4.16943 19.8553 4.05377 19.9891 4.04822C19.9921 4.06411 19.9965 4.08074 19.9983 4.09774C19.9998 4.11289 19.9987 4.12841 19.9987 4.14393C19.9987 5.18047 19.9987 6.21701 19.9983 7.25392C19.9983 7.28976 20.0072 7.32782 19.9839 7.36404C19.9204 7.37623 19.8568 7.36404 19.7929 7.35849C19.6794 7.34926 19.5664 7.33817 19.4529 7.32819C19.3336 7.31785 19.2138 7.30824 19.0945 7.299C18.9932 7.29124 18.892 7.28311 18.7907 7.27757C18.634 7.2687 18.4773 7.26057 18.3207 7.25355C18.0627 7.24209 17.8044 7.2262 17.5465 7.22251C17.1559 7.21696 16.7649 7.21512 16.3747 7.22214C16.095 7.22694 15.8156 7.24357 15.5366 7.26833C15.2794 7.29124 15.023 7.3208 14.7687 7.36551C14.5078 7.41171 14.251 7.47231 14.0049 7.57171C13.8848 7.62012 13.7699 7.67851 13.6653 7.75611C13.5855 7.81524 13.5171 7.88508 13.4628 7.96859C13.356 8.13266 13.3468 8.30154 13.4388 8.47485C13.4794 8.55134 13.5304 8.62045 13.5881 8.68511C13.6845 8.79339 13.7909 8.89094 13.904 8.98185C14.084 9.12634 14.2654 9.26824 14.4465 9.41161C14.6538 9.57606 14.8567 9.74567 15.0414 9.93598C15.1922 10.0908 15.3282 10.2567 15.4391 10.443C15.5684 10.6599 15.6523 10.8931 15.6767 11.1447C15.6977 11.3639 15.6752 11.5804 15.6157 11.7929C15.5255 12.1166 15.3729 12.41 15.1822 12.6842C14.9199 13.0615 14.5969 13.38 14.2355 13.6612C13.7817 14.0145 13.2847 14.2954 12.7581 14.5245C12.1498 14.789 11.5183 14.9786 10.8665 15.1024C10.5915 15.1545 10.3148 15.1952 10.0365 15.2232C9.61375 15.2657 9.18916 15.2783 8.76456 15.2606C8.15151 15.2351 7.54696 15.1497 6.95386 14.9886C6.48714 14.8618 6.03298 14.7007 5.60543 14.4716C4.89224 14.0892 4.31429 13.5559 3.85385 12.893C3.48617 12.3638 3.2153 11.7866 3.01169 11.1769C2.87533 10.7682 2.77186 10.351 2.69611 9.92711C2.6913 9.90051 2.68317 9.87427 2.67504 9.84286C2.64955 9.84286 2.62848 9.84064 2.60779 9.84286C2.32694 9.87649 2.04647 9.91196 1.76562 9.94522C1.53356 9.97293 1.30149 9.99769 1.06943 10.0254C0.83736 10.0528 0.605663 10.0823 0.373967 10.1104C0.264215 10.1237 0.154095 10.1366 0.0443439 10.1492C0.0354751 10.1503 0.0262368 10.1477 0.011825 10.1462C0.00849924 10.13 0.00332579 10.113 0.00184766 10.096C-1.7767e-09 10.0746 0.0011086 10.0531 0.0011086 10.0313C0.0011086 9.27452 0.0011086 8.51809 0.0011086 7.76128C0.0011086 7.7247 0.0011086 7.68812 0.0011086 7.65079C0.0580165 7.62567 0.113816 7.62419 0.167398 7.6168C0.392813 7.58576 0.618227 7.55693 0.843642 7.52811C1.05391 7.50113 1.26454 7.4749 1.4748 7.44755C1.63924 7.42612 1.80369 7.40358 1.96813 7.38141C2.07492 7.36699 2.18135 7.35332 2.28814 7.33891C2.30255 7.33706 2.3166 7.33189 2.3299 7.32819C2.3347 7.28717 2.30514 7.26944 2.2863 7.24726C2.14809 7.08615 2.00915 6.92577 1.8702 6.7654C1.26639 6.06735 0.662941 5.3693 0.0580165 4.67236C0.0166289 4.62469 0 4.57739 0 4.51494C0.00147813 3.04162 0.0011086 1.56829 0.0011086 0.0946002C0.0011086 0.0683635 0.00295626 0.0421267 0.00443439 0C0.0343665 0.0384313 0.0554298 0.0639291 0.075015 0.0905354C0.67144 0.90018 1.26934 1.70909 1.86318 2.52058C2.68059 3.6373 3.49577 4.75588 4.31022 5.87482C4.50571 6.14347 4.69491 6.41656 4.88669 6.68742C4.89187 6.69481 4.89815 6.7022 4.90221 6.71033C4.92734 6.75874 4.96466 6.7665 5.01751 6.758C5.29059 6.7144 5.56441 6.6756 5.83787 6.63421C6.18412 6.58174 6.53037 6.52779 6.87662 6.47568C7.18962 6.42875 7.50298 6.3833 7.81597 6.33711C7.83113 6.33489 7.84628 6.33415 7.86697 6.3323C7.87547 6.35558 7.88582 6.37739 7.8921 6.4003C8.05617 7.02111 8.22024 7.64156 8.38395 8.26274C8.39023 8.28602 8.39207 8.31041 8.39725 8.34108C8.22246 8.38727 8.04804 8.41979 7.87473 8.45748C7.70068 8.49517 7.52626 8.53287 7.35221 8.57093C7.17521 8.60973 6.9982 8.6489 6.82119 8.68733C6.64714 8.72539 6.47309 8.76309 6.29868 8.80078C6.12463 8.83847 5.95021 8.87616 5.77616 8.91385C5.60248 8.95155 5.42806 8.98628 5.24883 9.02989C5.25179 9.06204 5.25142 9.08938 5.25733 9.11525C5.38371 9.66105 5.54372 10.1961 5.76951 10.7102C5.95575 11.1344 6.18116 11.5353 6.47125 11.8978C6.50192 11.9363 6.53444 11.9732 6.56548 12.0116C6.82378 12.3309 7.15747 12.5338 7.54696 12.6513C7.73579 12.7082 7.92831 12.7455 8.12453 12.7666C8.40944 12.7973 8.69435 12.8036 8.98111 12.7862C9.60303 12.7485 10.2139 12.6458 10.8155 12.4858C11.0265 12.4296 11.2323 12.3568 11.4296 12.2622C11.5771 12.1916 11.7168 12.1081 11.8394 11.9983C11.9366 11.9111 12.0172 11.811 12.0693 11.6902C12.1458 11.5135 12.1454 11.3317 12.1007 11.1477C12.0626 10.9914 11.9976 10.8454 11.9204 10.705C11.7973 10.4807 11.651 10.2711 11.4924 10.0709C11.2674 9.78632 11.0376 9.50511 10.8103 9.22204C10.6255 8.99146 10.4463 8.75717 10.2918 8.50441C10.1954 8.34662 10.1089 8.18403 10.0509 8.00776C10.001 7.85551 9.97109 7.69883 9.94854 7.5403C9.92785 7.39656 9.92416 7.25244 9.93007 7.10758C9.95076 6.59356 10.1632 6.17858 10.5742 5.86743C10.8025 5.69449 11.0597 5.57957 11.331 5.49273C11.5453 5.42399 11.7652 5.3815 11.9865 5.34343C12.25 5.29798 12.5131 5.25142 12.7766 5.20597C13.046 5.15941 13.3157 5.11322 13.5851 5.06776C13.8637 5.02083 14.1427 4.97427 14.4217 4.92808C14.7037 4.88152 14.9856 4.83533 15.2676 4.78914C15.5133 4.74886 15.7587 4.70821 16.0044 4.6683C16.2077 4.63541 16.4106 4.60326 16.6253 4.5689L16.626 4.57Z" fill="#006A67"/>
</svg>
