<svg width="48" height="48" viewBox="0 0 48 48" fill="none" xmlns="http://www.w3.org/2000/svg">
<g clip-path="url(#clip0_59_10945)">
<path opacity="0.3" d="M24 22H28V26H24V30H28V34H24V38H40V18H24V22ZM32 22H36V26H32V22ZM32 30H36V34H32V30Z" fill="#006A67"/>
<path d="M32 30H36V34H32V30ZM32 22H36V26H32V22ZM44 14H24V6H4V42H44V14ZM12 38H8V34H12V38ZM12 30H8V26H12V30ZM12 22H8V18H12V22ZM12 14H8V10H12V14ZM20 38H16V34H20V38ZM20 30H16V26H20V30ZM20 22H16V18H20V22ZM20 14H16V10H20V14ZM40 38H24V34H28V30H24V26H28V22H24V18H40V38Z" fill="#006A67"/>
</g>
<defs>
<clipPath id="clip0_59_10945">
<rect width="48" height="48" fill="white"/>
</clipPath>
</defs>
</svg>
