<svg width="21" height="24" viewBox="0 0 21 24" fill="none" xmlns="http://www.w3.org/2000/svg">
<path d="M10.6756 14.3009C10.3508 14.3009 10.0785 14.191 9.85884 13.9713C9.63914 13.7516 9.52929 13.4794 9.52929 13.1546C9.52929 12.8298 9.63914 12.5576 9.85884 12.3379C10.0785 12.1182 10.3508 12.0084 10.6756 12.0084C11.0003 12.0084 11.2726 12.1182 11.4923 12.3379C11.712 12.5576 11.8218 12.8298 11.8218 13.1546C11.8218 13.4794 11.712 13.7516 11.4923 13.9713C11.2726 14.191 11.0003 14.3009 10.6756 14.3009ZM6.09048 14.3009C5.7657 14.3009 5.49346 14.191 5.27376 13.9713C5.05406 13.7516 4.94421 13.4794 4.94421 13.1546C4.94421 12.8298 5.05406 12.5576 5.27376 12.3379C5.49346 12.1182 5.7657 12.0084 6.09048 12.0084C6.41525 12.0084 6.68749 12.1182 6.9072 12.3379C7.1269 12.5576 7.23675 12.8298 7.23675 13.1546C7.23675 13.4794 7.1269 13.7516 6.9072 13.9713C6.68749 14.191 6.41525 14.3009 6.09048 14.3009ZM15.2606 14.3009C14.9359 14.3009 14.6636 14.191 14.4439 13.9713C14.2242 13.7516 14.1144 13.4794 14.1144 13.1546C14.1144 12.8298 14.2242 12.5576 14.4439 12.3379C14.6636 12.1182 14.9359 12.0084 15.2606 12.0084C15.5854 12.0084 15.8576 12.1182 16.0774 12.3379C16.2971 12.5576 16.4069 12.8298 16.4069 13.1546C16.4069 13.4794 16.2971 13.7516 16.0774 13.9713C15.8576 14.191 15.5854 14.3009 15.2606 14.3009ZM10.6756 18.886C10.3508 18.886 10.0785 18.7761 9.85884 18.5564C9.63914 18.3367 9.52929 18.0645 9.52929 17.7397C9.52929 17.4149 9.63914 17.1427 9.85884 16.923C10.0785 16.7033 10.3508 16.5934 10.6756 16.5934C11.0003 16.5934 11.2726 16.7033 11.4923 16.923C11.712 17.1427 11.8218 17.4149 11.8218 17.7397C11.8218 18.0645 11.712 18.3367 11.4923 18.5564C11.2726 18.7761 11.0003 18.886 10.6756 18.886ZM6.09048 18.886C5.7657 18.886 5.49346 18.7761 5.27376 18.5564C5.05406 18.3367 4.94421 18.0645 4.94421 17.7397C4.94421 17.4149 5.05406 17.1427 5.27376 16.923C5.49346 16.7033 5.7657 16.5934 6.09048 16.5934C6.41525 16.5934 6.68749 16.7033 6.9072 16.923C7.1269 17.1427 7.23675 17.4149 7.23675 17.7397C7.23675 18.0645 7.1269 18.3367 6.9072 18.5564C6.68749 18.7761 6.41525 18.886 6.09048 18.886ZM15.2606 18.886C14.9359 18.886 14.6636 18.7761 14.4439 18.5564C14.2242 18.3367 14.1144 18.0645 14.1144 17.7397C14.1144 17.4149 14.2242 17.1427 14.4439 16.923C14.6636 16.7033 14.9359 16.5934 15.2606 16.5934C15.5854 16.5934 15.8576 16.7033 16.0774 16.923C16.2971 17.1427 16.4069 17.4149 16.4069 17.7397C16.4069 18.0645 16.2971 18.3367 16.0774 18.5564C15.8576 18.7761 15.5854 18.886 15.2606 18.886ZM2.65167 23.471C2.02122 23.471 1.48152 23.2466 1.03256 22.7976C0.583609 22.3487 0.359131 21.809 0.359131 21.1785V5.13073C0.359131 4.50028 0.583609 3.96058 1.03256 3.51163C1.48152 3.06267 2.02122 2.83819 2.65167 2.83819H3.79794V0.545654H6.09048V2.83819H15.2606V0.545654H17.5532V2.83819H18.6994C19.3299 2.83819 19.8696 3.06267 20.3185 3.51163C20.7675 3.96058 20.992 4.50028 20.992 5.13073V21.1785C20.992 21.809 20.7675 22.3487 20.3185 22.7976C19.8696 23.2466 19.3299 23.471 18.6994 23.471H2.65167ZM2.65167 21.1785H18.6994V9.71581H2.65167V21.1785Z" fill="#E20B18"/>
</svg>
