<svg width="14" height="16" viewBox="0 0 14 16" fill="none" xmlns="http://www.w3.org/2000/svg">
<path d="M4.75 11.375C4.225 11.375 3.78125 11.1938 3.41875 10.8313C3.05625 10.4688 2.875 10.025 2.875 9.5C2.875 8.975 3.05625 8.53125 3.41875 8.16875C3.78125 7.80625 4.225 7.625 4.75 7.625C5.275 7.625 5.71875 7.80625 6.08125 8.16875C6.44375 8.53125 6.625 8.975 6.625 9.5C6.625 10.025 6.44375 10.4688 6.08125 10.8313C5.71875 11.1938 5.275 11.375 4.75 11.375ZM1.75 15.5C1.3375 15.5 0.984375 15.3531 0.690625 15.0594C0.396875 14.7656 0.25 14.4125 0.25 14V3.5C0.25 3.0875 0.396875 2.73438 0.690625 2.44063C0.984375 2.14688 1.3375 2 1.75 2H2.5V0.5H4V2H10V0.5H11.5V2H12.25C12.6625 2 13.0156 2.14688 13.3094 2.44063C13.6031 2.73438 13.75 3.0875 13.75 3.5V14C13.75 14.4125 13.6031 14.7656 13.3094 15.0594C13.0156 15.3531 12.6625 15.5 12.25 15.5H1.75ZM1.75 14H12.25V6.5H1.75V14Z" fill="#006A67"/>
</svg>
