<svg width="20" height="16" viewBox="0 0 20 16" fill="none" xmlns="http://www.w3.org/2000/svg">
<path d="M2.30775 15.5C1.80908 15.5 1.38308 15.3234 1.02975 14.9703C0.676583 14.6169 0.5 14.1909 0.5 13.6923V2.30775C0.5 1.80908 0.676583 1.38308 1.02975 1.02975C1.38308 0.676583 1.80908 0.5 2.30775 0.5H17.6923C18.1909 0.5 18.6169 0.676583 18.9703 1.02975C19.3234 1.38308 19.5 1.80908 19.5 2.30775V13.6923C19.5 14.1909 19.3234 14.6169 18.9703 14.9703C18.6169 15.3234 18.1909 15.5 17.6923 15.5H2.30775ZM2.30775 14H17.6923C17.7821 14 17.8558 13.9712 17.9135 13.9135C17.9712 13.8558 18 13.7821 18 13.6923V2.30775C18 2.21792 17.9712 2.14417 17.9135 2.0865C17.8558 2.02883 17.7821 2 17.6923 2H2.30775C2.21792 2 2.14417 2.02883 2.0865 2.0865C2.02883 2.14417 2 2.21792 2 2.30775V13.6923C2 13.7821 2.02883 13.8558 2.0865 13.9135C2.14417 13.9712 2.21792 14 2.30775 14ZM9.25 12.4423H10.75L10.9538 11.25C11.2114 11.173 11.4534 11.0759 11.6798 10.9588C11.9061 10.8414 12.1205 10.6872 12.323 10.496L13.475 10.898L14.2443 9.63075L13.3152 8.823C13.3807 8.54867 13.4135 8.27433 13.4135 8C13.4135 7.72567 13.3807 7.45133 13.3152 7.177L14.2443 6.36925L13.475 5.102L12.323 5.504C12.1205 5.31283 11.9061 5.15858 11.6798 5.04125C11.4534 4.92408 11.2114 4.827 10.9538 4.75L10.75 3.55775H9.25L9.04625 4.75C8.78858 4.827 8.54658 4.92408 8.32025 5.04125C8.09392 5.15858 7.8795 5.31283 7.677 5.504L6.525 5.102L5.75575 6.36925L6.68475 7.177C6.61925 7.45133 6.5865 7.72567 6.5865 8C6.5865 8.27433 6.61925 8.54867 6.68475 8.823L5.75575 9.63075L6.525 10.898L7.677 10.496C7.8795 10.6872 8.09392 10.8414 8.32025 10.9588C8.54658 11.0759 8.78858 11.173 9.04625 11.25L9.25 12.4423ZM10 10.077C9.42433 10.077 8.93425 9.87475 8.52975 9.47025C8.12525 9.06575 7.923 8.57567 7.923 8C7.923 7.42433 8.12525 6.93425 8.52975 6.52975C8.93425 6.12525 9.42433 5.923 10 5.923C10.5757 5.923 11.0658 6.12525 11.4703 6.52975C11.8748 6.93425 12.077 7.42433 12.077 8C12.077 8.57567 11.8748 9.06575 11.4703 9.47025C11.0658 9.87475 10.5757 10.077 10 10.077Z" fill="#1C1B1F"/>
</svg>
