<svg width="18" height="16" viewBox="0 0 18 16" fill="none" xmlns="http://www.w3.org/2000/svg">
<path d="M14.8346 15.5C14.293 15.5 13.8069 15.3438 13.3763 15.0312C12.9457 14.7188 12.6471 14.3194 12.4805 13.8333H8.16797C7.2513 13.8333 6.46658 13.5069 5.8138 12.8542C5.16102 12.2014 4.83463 11.4167 4.83463 10.5C4.83463 9.58333 5.16102 8.79861 5.8138 8.14583C6.46658 7.49306 7.2513 7.16667 8.16797 7.16667H9.83463C10.293 7.16667 10.6853 7.00347 11.0117 6.67708C11.3381 6.35069 11.5013 5.95833 11.5013 5.5C11.5013 5.04167 11.3381 4.64931 11.0117 4.32292C10.6853 3.99653 10.293 3.83333 9.83463 3.83333H5.52213C5.34158 4.31944 5.0395 4.71875 4.61589 5.03125C4.19227 5.34375 3.70964 5.5 3.16797 5.5C2.47352 5.5 1.88325 5.25694 1.39714 4.77083C0.911024 4.28472 0.667969 3.69444 0.667969 3C0.667969 2.30556 0.911024 1.71528 1.39714 1.22917C1.88325 0.743056 2.47352 0.5 3.16797 0.5C3.70964 0.5 4.19227 0.65625 4.61589 0.96875C5.0395 1.28125 5.34158 1.68056 5.52213 2.16667H9.83463C10.7513 2.16667 11.536 2.49306 12.1888 3.14583C12.8416 3.79861 13.168 4.58333 13.168 5.5C13.168 6.41667 12.8416 7.20139 12.1888 7.85417C11.536 8.50694 10.7513 8.83333 9.83463 8.83333H8.16797C7.70963 8.83333 7.31727 8.99653 6.99088 9.32292C6.6645 9.64931 6.5013 10.0417 6.5013 10.5C6.5013 10.9583 6.6645 11.3507 6.99088 11.6771C7.31727 12.0035 7.70963 12.1667 8.16797 12.1667H12.4805C12.661 11.6806 12.9631 11.2812 13.3867 10.9688C13.8103 10.6562 14.293 10.5 14.8346 10.5C15.5291 10.5 16.1194 10.7431 16.6055 11.2292C17.0916 11.7153 17.3346 12.3056 17.3346 13C17.3346 13.6944 17.0916 14.2847 16.6055 14.7708C16.1194 15.2569 15.5291 15.5 14.8346 15.5ZM3.16797 3.83333C3.40408 3.83333 3.602 3.75347 3.76172 3.59375C3.92144 3.43403 4.0013 3.23611 4.0013 3C4.0013 2.76389 3.92144 2.56597 3.76172 2.40625C3.602 2.24653 3.40408 2.16667 3.16797 2.16667C2.93186 2.16667 2.73394 2.24653 2.57422 2.40625C2.4145 2.56597 2.33464 2.76389 2.33464 3C2.33464 3.23611 2.4145 3.43403 2.57422 3.59375C2.73394 3.75347 2.93186 3.83333 3.16797 3.83333Z" fill="#006A67"/>
</svg>
