<svg width="24" height="25" viewBox="0 0 24 25" fill="none" xmlns="http://www.w3.org/2000/svg">
<rect x="0.5" y="0.974609" width="23" height="23" rx="4.5" fill="white" stroke="#DCDCDC"/>
<path d="M18 8.46224C15.78 8.24224 13.5467 8.12891 11.32 8.12891C10 8.12891 8.68 8.19557 7.36 8.32891L6 8.46224" stroke="#FF0601" stroke-linecap="round" stroke-linejoin="round"/>
<path d="M9.66406 7.78859L9.81073 6.91526C9.9174 6.28193 9.9974 5.80859 11.1241 5.80859H12.8707C13.9974 5.80859 14.0841 6.30859 14.1841 6.92193L14.3307 7.78859" stroke="#FF0601" stroke-linecap="round" stroke-linejoin="round"/>
<path d="M16.563 10.5684L16.1297 17.2817C16.0564 18.3284 15.9964 19.1417 14.1364 19.1417H9.85635C7.99635 19.1417 7.93635 18.3284 7.86302 17.2817L7.42969 10.5684" stroke="#FF0601" stroke-linecap="round" stroke-linejoin="round"/>
<path d="M10.8828 15.4746H13.1028" stroke="#EB5757" stroke-width="1.5" stroke-linecap="round" stroke-linejoin="round"/>
<path d="M10.3359 12.8086H13.6693" stroke="#EB5757" stroke-width="1.5" stroke-linecap="round" stroke-linejoin="round"/>
</svg>
