<svg width="24" height="24" viewBox="0 0 24 24" fill="none" xmlns="http://www.w3.org/2000/svg">
<path d="M19.5264 5.47381C17.5864 3.53381 15.6864 3.48381 13.6964 5.47381L12.4864 6.68381C12.3864 6.78381 12.3464 6.94381 12.3864 7.08381C13.1464 9.73381 15.2664 11.8538 17.9164 12.6138C17.9564 12.6238 17.9964 12.6338 18.0364 12.6338C18.1464 12.6338 18.2464 12.5938 18.3264 12.5138L19.5264 11.3038C20.5164 10.3238 20.9964 9.37381 20.9964 8.41381C21.0064 7.42381 20.5264 6.46381 19.5264 5.47381Z" fill="#E20B18"/>
<path d="M16.1162 13.5239C15.8262 13.3839 15.5462 13.2439 15.2762 13.0839C15.0562 12.9539 14.8462 12.8139 14.6362 12.6639C14.4662 12.5539 14.2662 12.3939 14.0762 12.2339C14.0562 12.2239 13.9862 12.1639 13.9062 12.0839C13.5762 11.8039 13.2062 11.4439 12.8762 11.0439C12.8462 11.0239 12.7962 10.9539 12.7262 10.8639C12.6262 10.7439 12.4562 10.5439 12.3062 10.3139C12.1862 10.1639 12.0462 9.94395 11.9162 9.72395C11.7562 9.45395 11.6162 9.18394 11.4762 8.90394C11.455 8.85855 11.4345 8.81338 11.4146 8.76848C11.267 8.43516 10.8324 8.33772 10.5746 8.59547L4.84618 14.3239C4.71618 14.4539 4.59618 14.7039 4.56618 14.8739L4.02618 18.7039C3.92618 19.3839 4.11618 20.0239 4.53618 20.4539C4.89618 20.8039 5.39618 20.9939 5.93618 20.9939C6.05618 20.9939 6.17618 20.9839 6.29618 20.9639L10.1362 20.4239C10.3162 20.3939 10.5662 20.2739 10.6862 20.1439L16.4075 14.4226C16.667 14.1631 16.5691 13.7176 16.2315 13.5736C16.1935 13.5573 16.1551 13.5408 16.1162 13.5239Z" fill="#E20B18"/>
</svg>
