<svg width="160" height="132" viewBox="0 0 160 132" fill="none" xmlns="http://www.w3.org/2000/svg">
<path d="M118.586 59.9733C112.45 55.8797 105.198 54.7753 98.5469 56.3124C100.262 49.8609 97.8038 42.7542 91.945 38.846C84.584 33.9357 74.6431 35.926 69.7444 43.2913C68.7408 44.8009 67.9996 46.4697 67.5521 48.2271C52.5238 38.7509 32.6094 42.9398 22.7147 57.8172C12.6596 72.9353 16.7574 93.3603 31.8675 103.44C46.9777 113.519 67.3765 109.435 77.4314 94.3172C78.4204 92.8277 79.2888 91.2613 80.0282 89.6331C81.7884 94.8293 85.209 99.5052 90.1247 102.784C101.94 110.666 117.892 107.472 125.755 95.6504C133.617 83.8288 130.402 67.8551 118.586 59.9733ZM82.2788 68.1883C82.2015 68.3135 82.1306 68.4374 82.0575 68.5654C82.0274 68.4333 81.9933 68.2985 81.9633 68.1664C82.068 68.1775 82.1727 68.1883 82.2788 68.1883Z" fill="url(#paint0_linear_1_7782)"/>
<path d="M121.505 46.9762C115.74 50.6335 107.266 47.5948 107.266 47.5948C107.266 47.5948 108.142 38.6281 113.91 34.9749C119.675 31.3179 128.146 34.3525 128.146 34.3525C128.146 34.3525 127.269 43.3192 121.505 46.9762Z" fill="url(#paint1_linear_1_7782)"/>
<path d="M107.344 106.053C107.236 106.01 107.149 105.929 107.098 105.824C107.048 105.719 107.039 105.6 107.073 105.489C107.107 105.377 107.181 105.283 107.281 105.225C107.382 105.166 107.5 105.148 107.613 105.173C108.73 105.429 109.853 105.653 110.982 105.846C111.041 105.856 111.098 105.878 111.149 105.91C111.2 105.943 111.244 105.985 111.279 106.034C111.314 106.084 111.339 106.14 111.352 106.199C111.365 106.258 111.367 106.319 111.357 106.378C111.336 106.499 111.268 106.606 111.168 106.676C111.069 106.747 110.946 106.775 110.825 106.755C109.679 106.559 108.539 106.332 107.405 106.072C107.385 106.067 107.364 106.061 107.344 106.053ZM114.16 107.231C114.055 107.19 113.969 107.113 113.918 107.013C113.866 106.914 113.852 106.799 113.879 106.69C113.907 106.581 113.972 106.485 114.065 106.421C114.157 106.358 114.269 106.33 114.38 106.343C115.521 106.479 116.669 106.587 117.797 106.664C117.918 106.673 118.032 106.729 118.112 106.821C118.192 106.913 118.233 107.033 118.225 107.155C118.217 107.277 118.16 107.391 118.069 107.471C117.977 107.552 117.857 107.593 117.735 107.585C116.591 107.507 115.426 107.397 114.271 107.259C114.233 107.254 114.196 107.244 114.16 107.231ZM121.052 107.692C120.951 107.653 120.868 107.58 120.816 107.486C120.764 107.391 120.746 107.281 120.767 107.175C120.787 107.069 120.844 106.974 120.928 106.906C121.011 106.837 121.116 106.801 121.224 106.802C122.366 106.817 123.509 106.797 124.65 106.743C124.71 106.74 124.771 106.749 124.828 106.77C124.884 106.79 124.937 106.822 124.981 106.862C125.026 106.903 125.062 106.952 125.088 107.007C125.113 107.062 125.128 107.121 125.131 107.182C125.142 107.436 124.947 107.652 124.693 107.664C123.556 107.72 122.385 107.739 121.211 107.723C121.157 107.723 121.102 107.713 121.052 107.692ZM127.948 107.358C127.869 107.328 127.8 107.276 127.749 107.21C127.698 107.143 127.665 107.063 127.656 106.979C127.65 106.919 127.655 106.858 127.671 106.8C127.688 106.742 127.716 106.688 127.753 106.64C127.791 106.593 127.838 106.553 127.89 106.524C127.943 106.495 128.001 106.476 128.061 106.469C129.212 106.337 130.349 106.163 131.441 105.955C131.501 105.943 131.562 105.944 131.621 105.956C131.68 105.968 131.737 105.992 131.787 106.026C131.837 106.06 131.879 106.104 131.912 106.155C131.945 106.206 131.968 106.262 131.979 106.322C132.002 106.442 131.976 106.566 131.908 106.668C131.839 106.769 131.733 106.839 131.613 106.862C130.471 107.08 129.321 107.255 128.165 107.387C128.091 107.394 128.017 107.384 127.948 107.358ZM134.723 106.049C134.655 106.023 134.595 105.982 134.547 105.929C134.498 105.875 134.463 105.811 134.445 105.742C134.412 105.624 134.428 105.498 134.488 105.391C134.548 105.284 134.648 105.206 134.766 105.173C135.86 104.866 136.94 104.508 138.001 104.1C138.115 104.057 138.241 104.06 138.353 104.11C138.464 104.16 138.551 104.252 138.595 104.366C138.686 104.603 138.567 104.87 138.33 104.962C137.242 105.381 136.135 105.747 135.013 106.061C134.917 106.089 134.815 106.084 134.723 106.049ZM141.149 103.558C141.042 103.518 140.955 103.439 140.904 103.337C140.849 103.227 140.839 103.101 140.877 102.984C140.915 102.868 140.997 102.771 141.106 102.716C142.115 102.2 143.094 101.628 144.039 101.003C144.09 100.969 144.146 100.946 144.205 100.934C144.265 100.923 144.326 100.923 144.385 100.935C144.444 100.947 144.501 100.971 144.551 101.004C144.601 101.038 144.644 101.082 144.677 101.132C144.745 101.234 144.769 101.359 144.745 101.479C144.72 101.599 144.65 101.704 144.548 101.772C143.574 102.418 142.565 103.008 141.524 103.539C141.466 103.568 141.403 103.585 141.338 103.588C141.274 103.591 141.209 103.581 141.149 103.558ZM146.879 99.7432C146.805 99.7143 146.739 99.6665 146.688 99.6045C146.638 99.5426 146.605 99.4685 146.591 99.3897C146.578 99.3109 146.586 99.2299 146.613 99.1549C146.64 99.0798 146.687 99.0131 146.748 98.9614C147.608 98.2267 148.423 97.4404 149.189 96.607C149.23 96.5625 149.279 96.5264 149.334 96.5009C149.389 96.4754 149.448 96.461 149.508 96.4584C149.569 96.4559 149.629 96.4652 149.686 96.486C149.742 96.5068 149.795 96.5386 149.839 96.5795C149.884 96.6205 149.92 96.6698 149.945 96.7247C149.97 96.7796 149.985 96.839 149.987 96.8994C149.99 96.9599 149.981 97.0203 149.96 97.0771C149.939 97.134 149.907 97.1862 149.866 97.2307C149.076 98.0924 148.233 98.9048 147.344 99.6635C147.208 99.7767 147.03 99.8011 146.879 99.7432ZM151.536 94.6753C151.47 94.65 151.411 94.6099 151.363 94.5581C151.316 94.5064 151.28 94.4443 151.26 94.3767C151.24 94.309 151.236 94.2377 151.248 94.1682C151.259 94.0986 151.287 94.0327 151.328 93.9755C151.989 93.0555 152.598 92.0995 153.153 91.1118C153.183 91.0589 153.222 91.0123 153.27 90.9749C153.317 90.9374 153.372 90.9097 153.43 90.8935C153.488 90.8772 153.549 90.8727 153.609 90.8803C153.669 90.8878 153.727 90.9072 153.78 90.9373C153.833 90.9671 153.879 91.007 153.916 91.0547C153.954 91.1024 153.981 91.1571 153.998 91.2155C154.014 91.2739 154.018 91.335 154.011 91.3952C154.004 91.4554 153.985 91.5135 153.955 91.5664C153.383 92.5844 152.755 93.5698 152.074 94.518C152.013 94.5991 151.928 94.6583 151.831 94.6866C151.734 94.715 151.631 94.711 151.536 94.6753ZM154.964 88.6891L154.933 88.6772C154.878 88.6517 154.829 88.6157 154.788 88.5711C154.747 88.5265 154.715 88.4742 154.695 88.4174C154.674 88.3605 154.665 88.3 154.667 88.2396C154.67 88.1791 154.685 88.1197 154.71 88.0648C155.189 87.0317 155.623 85.9779 156.009 84.9066C156.029 84.8483 156.06 84.7945 156.1 84.7484C156.14 84.7022 156.19 84.6646 156.245 84.6377C156.3 84.6109 156.36 84.5954 156.421 84.5921C156.482 84.5888 156.543 84.5978 156.601 84.6186C156.659 84.6393 156.712 84.6714 156.757 84.713C156.802 84.7545 156.838 84.8047 156.864 84.8606C156.889 84.9164 156.903 84.9768 156.905 85.0382C156.907 85.0995 156.897 85.1606 156.875 85.2179C156.788 85.4613 156.694 85.7105 156.6 85.9573C156.275 86.8013 155.923 87.6343 155.543 88.4548C155.494 88.5596 155.406 88.6419 155.299 88.6852C155.192 88.7286 155.072 88.73 154.964 88.6891ZM157.269 82.1791C157.165 82.1386 157.08 82.0619 157.028 81.963C156.976 81.8641 156.961 81.7497 156.987 81.641C157.258 80.5076 157.452 79.3815 157.563 78.2961C157.576 78.1746 157.636 78.063 157.73 77.9857C157.824 77.9084 157.946 77.8719 158.067 77.884C158.127 77.8903 158.185 77.9083 158.238 77.9371C158.292 77.966 158.338 78.005 158.376 78.052C158.415 78.0991 158.443 78.1531 158.46 78.2112C158.477 78.2692 158.483 78.33 158.476 78.3902C158.36 79.5173 158.159 80.6819 157.879 81.8555C157.851 81.9743 157.776 82.077 157.672 82.1409C157.568 82.2049 157.443 82.2248 157.325 82.1964C157.308 82.1917 157.287 82.1861 157.269 82.1791ZM157.943 75.3221C157.861 75.29 157.789 75.2348 157.737 75.1632C157.685 75.0915 157.654 75.0063 157.649 74.9177C157.584 73.7709 157.417 72.651 157.152 71.5905C157.122 71.472 157.141 71.3464 157.203 71.2414C157.266 71.1364 157.367 71.0606 157.486 71.0306C157.544 71.0157 157.605 71.0126 157.665 71.0213C157.725 71.0301 157.782 71.0506 157.834 71.0816C157.886 71.1126 157.931 71.1536 157.967 71.2021C158.003 71.2507 158.029 71.3059 158.044 71.3646C158.323 72.48 158.498 73.657 158.568 74.8632C158.571 74.9237 158.563 74.9842 158.543 75.0414C158.523 75.0986 158.492 75.1513 158.452 75.1965C158.412 75.2417 158.363 75.2785 158.309 75.3048C158.254 75.3311 158.195 75.3465 158.135 75.3499C158.067 75.355 158.003 75.3448 157.943 75.3221ZM144.049 69.4148C143.94 69.3728 143.851 69.2907 143.8 69.1852C143.75 69.0797 143.741 68.9588 143.776 68.8472C143.813 68.7303 143.894 68.6328 144.002 68.5759C144.11 68.5191 144.237 68.5076 144.353 68.5441C145.372 68.8644 146.499 69.0328 147.614 69.031C147.735 69.034 147.849 69.084 147.933 69.1704C148.017 69.2568 148.064 69.3726 148.064 69.4932C148.064 69.6138 148.016 69.7295 147.932 69.8157C147.848 69.9018 147.733 69.9515 147.613 69.9542C146.406 69.9557 145.183 69.7714 144.076 69.4251C144.068 69.42 144.056 69.4176 144.049 69.4148ZM141.051 67.7641C140.996 67.7426 140.946 67.7115 140.903 67.672C139.773 66.6164 139.332 65.3583 139.664 64.1304C139.696 64.0126 139.773 63.9122 139.878 63.8513C139.984 63.7903 140.109 63.7738 140.227 63.8052C140.285 63.8211 140.34 63.8483 140.388 63.8853C140.436 63.9224 140.476 63.9685 140.506 64.0211C140.535 64.0736 140.555 64.1316 140.562 64.1917C140.57 64.2517 140.566 64.3127 140.55 64.371C140.245 65.502 140.913 66.4239 141.527 66.9985C141.605 67.0711 141.656 67.1686 141.67 67.2743C141.684 67.38 141.661 67.4873 141.604 67.5779C141.548 67.6684 141.462 67.7365 141.361 67.7705C141.26 67.8044 141.15 67.8022 141.051 67.7641ZM150.845 69.4056C150.78 69.3808 150.722 69.3415 150.674 69.2906C150.626 69.2397 150.591 69.1786 150.571 69.112C150.535 68.9952 150.546 68.8689 150.602 68.7605C150.659 68.6522 150.756 68.5706 150.872 68.5335C151.925 68.2036 152.917 67.7045 153.81 67.0555C153.859 67.0199 153.914 66.9942 153.973 66.98C154.031 66.9658 154.092 66.9634 154.152 66.9729C154.212 66.9824 154.269 67.0036 154.321 67.0353C154.372 67.067 154.417 67.1085 154.452 67.1576C154.488 67.2067 154.513 67.2622 154.527 67.3212C154.541 67.3801 154.544 67.4413 154.534 67.5011C154.525 67.561 154.504 67.6183 154.472 67.67C154.44 67.7216 154.399 67.7665 154.35 67.8021C153.377 68.5103 152.295 69.0547 151.147 69.4138C151.046 69.4472 150.939 69.4413 150.845 69.4056ZM156.25 68.6698C156.142 68.6284 156.054 68.5481 156.002 68.4446C155.509 67.443 154.9 66.5032 154.187 65.6447C154.148 65.5982 154.119 65.5445 154.101 65.4868C154.083 65.429 154.077 65.3682 154.082 65.3079C154.088 65.2477 154.105 65.1891 154.133 65.1355C154.161 65.0819 154.2 65.0344 154.246 64.9958C154.292 64.957 154.346 64.9278 154.403 64.9098C154.461 64.8917 154.522 64.8852 154.582 64.8906C154.642 64.896 154.7 64.9132 154.754 64.9412C154.807 64.9692 154.854 65.0075 154.893 65.0539C155.651 65.9688 156.3 66.9695 156.826 68.0355C156.939 68.2628 156.847 68.5415 156.618 68.6541C156.497 68.7112 156.365 68.714 156.25 68.6698ZM142.139 62.1174C142.058 62.0859 141.988 62.0323 141.936 61.9627C141.884 61.8931 141.853 61.8103 141.846 61.7238C141.839 61.6372 141.856 61.5505 141.896 61.4734C141.936 61.3963 141.997 61.332 142.071 61.2878C143.092 60.6919 144.278 60.3762 145.595 60.3507C145.655 60.3496 145.715 60.3604 145.771 60.3825C145.827 60.4046 145.879 60.4376 145.922 60.4796C145.966 60.5217 146 60.5718 146.024 60.6273C146.048 60.6828 146.061 60.7425 146.062 60.803C146.063 60.8635 146.052 60.9236 146.03 60.9799C146.008 61.0362 145.975 61.0877 145.933 61.1312C145.891 61.1748 145.841 61.2097 145.786 61.2338C145.731 61.258 145.671 61.271 145.611 61.2721C144.453 61.2948 143.418 61.567 142.535 62.0835C142.476 62.1187 142.409 62.1401 142.341 62.146C142.272 62.1518 142.203 62.1421 142.139 62.1174ZM156.342 65.422C156.304 65.4069 156.268 65.3875 156.234 65.3642C156.185 65.3284 156.144 65.2832 156.112 65.2314C156.081 65.1795 156.06 65.1219 156.051 65.0619C156.042 65.002 156.044 64.9408 156.059 64.8819C156.073 64.8229 156.099 64.7675 156.135 64.7186C156.762 63.862 157.299 62.8779 157.729 61.7953C157.774 61.6829 157.862 61.5926 157.972 61.5439C158.083 61.4952 158.208 61.492 158.321 61.5349L158.327 61.5369C158.44 61.5823 158.531 61.6708 158.579 61.7831C158.627 61.8954 158.629 62.0222 158.583 62.1357C158.123 63.2913 157.549 64.3441 156.876 65.2634C156.816 65.3448 156.732 65.4044 156.635 65.433C156.539 65.4617 156.436 65.4578 156.342 65.422ZM151.861 63.4273C151.824 63.4126 151.789 63.3936 151.757 63.3707C150.833 62.7064 149.845 62.1845 148.831 61.8264C148.716 61.7854 148.622 61.7004 148.57 61.59C148.517 61.4796 148.511 61.3528 148.552 61.2377C148.572 61.1806 148.603 61.128 148.643 61.0829C148.684 61.0378 148.733 61.0012 148.787 60.9751C148.842 60.9491 148.901 60.934 148.961 60.9309C149.022 60.9278 149.082 60.9366 149.139 60.9569C150.234 61.3444 151.302 61.9069 152.294 62.6226C152.501 62.772 152.548 63.0586 152.4 63.2663C152.274 63.4391 152.051 63.5003 151.861 63.4273ZM158.949 59.0756C158.849 59.0366 158.765 58.9632 158.712 58.8683C158.66 58.7734 158.643 58.6631 158.664 58.5568C158.868 57.5071 159.006 56.3721 159.072 55.1866C159.08 55.0645 159.135 54.9502 159.226 54.8686C159.317 54.787 159.436 54.7448 159.558 54.7511C159.68 54.7582 159.794 54.8135 159.875 54.9047C159.957 54.9959 159.998 55.1157 159.992 55.2378C159.923 56.4659 159.781 57.6405 159.567 58.7319C159.544 58.8519 159.474 58.9578 159.373 59.0264C159.272 59.0949 159.147 59.1203 159.028 59.0972C159.001 59.0928 158.975 59.0855 158.949 59.0756ZM159.376 52.1875C159.293 52.1553 159.221 52.0996 159.168 52.0271C159.116 51.9545 159.086 51.8684 159.081 51.779C159.028 50.6392 158.93 49.502 158.786 48.37C158.771 48.2487 158.805 48.1263 158.88 48.0296C158.954 47.933 159.064 47.8698 159.185 47.8538C159.306 47.8389 159.429 47.8726 159.525 47.9475C159.621 48.0225 159.684 48.1326 159.7 48.2538C159.848 49.4531 159.95 50.6226 160 51.7348C160.004 51.8112 159.988 51.8873 159.955 51.9563C159.922 52.0252 159.872 52.0848 159.81 52.1297C159.748 52.1746 159.676 52.2034 159.6 52.2135C159.525 52.2236 159.448 52.2146 159.376 52.1875ZM158.471 45.3418C158.401 45.3152 158.339 45.2721 158.29 45.2162C158.241 45.1602 158.206 45.0932 158.188 45.0207C157.917 43.9217 157.576 42.8412 157.167 41.7858C157.123 41.6717 157.125 41.5446 157.174 41.4325C157.224 41.3204 157.315 41.2323 157.429 41.1878C157.485 41.1657 157.545 41.1549 157.606 41.1561C157.666 41.1573 157.726 41.1704 157.781 41.1947C157.836 41.219 157.886 41.2541 157.928 41.2978C157.97 41.3415 158.003 41.3931 158.025 41.4495C158.448 42.5424 158.801 43.6614 159.082 44.7996C159.102 44.8813 159.099 44.9669 159.074 45.0472C159.049 45.1275 159.002 45.1994 158.939 45.2551C158.877 45.3109 158.8 45.3485 158.717 45.3637C158.635 45.379 158.549 45.3714 158.471 45.3418ZM155.987 38.9177C155.885 38.8782 155.799 38.8029 155.747 38.7056C155.209 37.7074 154.616 36.7401 153.969 35.8083C153.935 35.7586 153.91 35.7026 153.898 35.6434C153.885 35.5842 153.884 35.5231 153.894 35.4635C153.905 35.4039 153.927 35.347 153.96 35.2961C153.993 35.2452 154.035 35.2013 154.085 35.1669C154.293 35.0214 154.581 35.0717 154.725 35.282C155.391 36.2421 156.003 37.2391 156.557 38.2683C156.586 38.3216 156.604 38.3801 156.61 38.4404C156.616 38.5006 156.61 38.5615 156.593 38.6196C156.575 38.6776 156.547 38.7316 156.508 38.7785C156.47 38.8254 156.423 38.8642 156.37 38.8928C156.311 38.9244 156.247 38.943 156.181 38.9473C156.115 38.9516 156.049 38.9415 155.987 38.9177ZM85.8502 8.13402C85.7637 8.10082 85.6893 8.04229 85.6366 7.96606C85.5839 7.88984 85.5553 7.79947 85.5547 7.70675C85.5539 7.58459 85.6014 7.46709 85.6868 7.37987C85.7723 7.29265 85.8886 7.24279 86.0106 7.24116C87.0082 7.23345 88.1787 7.27381 89.4938 7.36122C89.5541 7.36527 89.613 7.38118 89.6671 7.40802C89.7212 7.43487 89.7695 7.47213 89.8093 7.51768C89.849 7.56324 89.8794 7.61619 89.8987 7.6735C89.918 7.73082 89.9258 7.79139 89.9218 7.85174C89.9135 7.97371 89.8573 8.08744 89.7655 8.16801C89.6737 8.24858 89.5538 8.28942 89.432 8.28159C88.1405 8.19701 86.9904 8.15665 86.0173 8.16539C85.9601 8.16547 85.9034 8.15483 85.8502 8.13402ZM152.071 33.2428C151.999 33.2154 151.936 33.1704 151.886 33.112C151.147 32.2477 150.37 31.4165 149.557 30.6208C149.514 30.5785 149.48 30.5281 149.456 30.4725C149.432 30.4169 149.42 30.3571 149.419 30.2966C149.419 30.2362 149.43 30.1762 149.453 30.1201C149.475 30.064 149.509 30.013 149.551 29.9699C149.593 29.9265 149.643 29.8919 149.699 29.8681C149.754 29.8442 149.814 29.8316 149.874 29.8309C149.934 29.8303 149.994 29.8416 150.05 29.8642C150.106 29.8868 150.157 29.9203 150.2 29.9627C151.031 30.7779 151.827 31.6286 152.585 32.5124C152.651 32.5904 152.69 32.6883 152.695 32.7906C152.7 32.893 152.67 32.994 152.611 33.0778C152.552 33.1615 152.467 33.2232 152.369 33.2531C152.271 33.283 152.166 33.2794 152.071 33.2428ZM92.7373 8.55436C92.6425 8.51788 92.5625 8.451 92.5097 8.36417C92.4569 8.27734 92.4343 8.17543 92.4454 8.07438C92.4517 8.01414 92.4697 7.95574 92.4986 7.90254C92.5275 7.84933 92.5666 7.80238 92.6137 7.76438C92.6608 7.72638 92.7149 7.69809 92.7729 7.68114C92.831 7.66419 92.8918 7.65891 92.9519 7.66561C94.0575 7.78413 95.2137 7.9263 96.3902 8.09057C96.4501 8.09894 96.5077 8.11904 96.5598 8.14972C96.6119 8.1804 96.6575 8.22107 96.6939 8.26939C96.7303 8.31772 96.7568 8.37275 96.772 8.43135C96.7871 8.48995 96.7906 8.55097 96.7822 8.61092C96.774 8.67095 96.754 8.72876 96.7234 8.78105C96.6929 8.83335 96.6523 8.87909 96.6041 8.91568C96.5558 8.95226 96.5009 8.97895 96.4423 8.99424C96.3838 9.00953 96.3228 9.01311 96.2629 9.00477C95.128 8.84697 93.9907 8.70658 92.8515 8.58367C92.8124 8.57868 92.774 8.56883 92.7373 8.55436ZM147.159 28.4029C147.111 28.3847 147.067 28.3586 147.028 28.3258C146.154 27.5928 145.257 26.8887 144.338 26.2146C144.239 26.1424 144.174 26.034 144.155 25.9134C144.136 25.7927 144.166 25.6695 144.238 25.5709C144.31 25.4723 144.418 25.4063 144.538 25.3874C144.658 25.3685 144.781 25.3983 144.88 25.4701C145.816 26.1559 146.73 26.8726 147.62 27.6188C147.703 27.6889 147.759 27.7864 147.777 27.8939C147.796 28.0014 147.776 28.112 147.721 28.206C147.665 28.3 147.579 28.3714 147.476 28.4075C147.373 28.4435 147.261 28.4419 147.159 28.4029ZM99.5731 9.49606C99.4666 9.45517 99.3791 9.37615 99.3275 9.27431C99.2759 9.17248 99.2639 9.05508 99.2937 8.94487C99.3236 8.83467 99.3933 8.73949 99.4893 8.67779C99.5852 8.61609 99.7006 8.59226 99.8131 8.61092C100.936 8.79628 102.083 9.00092 103.221 9.21841C103.341 9.24171 103.446 9.3115 103.515 9.41254C103.583 9.51358 103.609 9.63769 103.587 9.75778C103.564 9.87786 103.494 9.98394 103.394 10.0529C103.293 10.1218 103.169 10.148 103.049 10.1257C101.922 9.91114 100.793 9.70991 99.6619 9.52203C99.6316 9.51612 99.6018 9.50743 99.5731 9.49606ZM106.351 10.7895C106.248 10.7501 106.163 10.6752 106.111 10.5782C106.058 10.4812 106.043 10.3687 106.067 10.2612C106.093 10.1416 106.165 10.0372 106.267 9.97084C106.37 9.90448 106.495 9.88157 106.614 9.90714C107.74 10.1493 108.875 10.4072 109.989 10.6758C110.048 10.6897 110.104 10.7151 110.153 10.7506C110.202 10.7861 110.243 10.831 110.275 10.8828C110.306 10.9345 110.327 10.9919 110.336 11.0518C110.346 11.1117 110.343 11.1728 110.328 11.2317C110.3 11.3505 110.225 11.4531 110.121 11.517C110.018 11.581 109.892 11.6009 109.774 11.5725C108.659 11.3047 107.541 11.0499 106.42 10.808C106.396 10.8046 106.373 10.7984 106.351 10.7895ZM141.602 24.3176C141.573 24.3059 141.544 24.2917 141.518 24.2749C140.558 23.6553 139.583 23.0594 138.594 22.4876C138.489 22.4265 138.412 22.326 138.38 22.2081C138.348 22.0902 138.364 21.9645 138.425 21.8586C138.455 21.806 138.495 21.7598 138.543 21.7228C138.591 21.6858 138.646 21.6587 138.705 21.6429C138.763 21.6272 138.824 21.6231 138.884 21.631C138.944 21.6389 139.002 21.6585 139.054 21.6889C140.058 22.2669 141.046 22.8709 142.018 23.5C142.12 23.5665 142.192 23.6709 142.218 23.7903C142.244 23.9098 142.221 24.0346 142.155 24.1374C142.097 24.2258 142.011 24.2919 141.91 24.3247C141.81 24.3574 141.701 24.3549 141.602 24.3176ZM113.06 12.4016C112.954 12.3605 112.867 12.2818 112.815 12.1804C112.763 12.0791 112.751 11.9623 112.78 11.8523C112.811 11.7342 112.888 11.6334 112.993 11.572C113.098 11.5105 113.224 11.4934 113.342 11.5245C114.457 11.8205 115.568 12.1306 116.676 12.4549C116.791 12.4906 116.888 12.5705 116.946 12.6774C117.003 12.7842 117.016 12.9094 116.982 13.0258C116.948 13.1423 116.87 13.2406 116.764 13.2996C116.658 13.3586 116.533 13.3735 116.417 13.341C115.316 13.0198 114.213 12.7118 113.105 12.4171C113.091 12.4117 113.074 12.4073 113.06 12.4016ZM135.63 20.8621C135.613 20.8561 135.597 20.8493 135.582 20.8415C134.566 20.3152 133.54 19.8097 132.503 19.3252C132.448 19.2996 132.399 19.2634 132.358 19.2187C132.317 19.1739 132.286 19.1215 132.265 19.0645C132.245 19.0075 132.236 18.9469 132.239 18.8864C132.242 18.8259 132.257 18.7665 132.283 18.7118C132.308 18.6568 132.344 18.6074 132.389 18.5665C132.434 18.5255 132.486 18.4938 132.543 18.4732C132.6 18.4525 132.66 18.4434 132.721 18.4463C132.781 18.4492 132.84 18.464 132.895 18.49C133.942 18.981 134.979 19.4921 136.006 20.023C136.114 20.0793 136.196 20.1763 136.233 20.2928C136.27 20.4092 136.259 20.5355 136.203 20.6441C136.151 20.7447 136.064 20.8225 135.958 20.8627C135.852 20.9029 135.735 20.9027 135.63 20.8621ZM119.679 14.339C119.569 14.2966 119.48 14.2138 119.429 14.1075C119.378 14.0012 119.37 13.8795 119.406 13.7673C119.443 13.651 119.525 13.5542 119.633 13.4982C119.741 13.4421 119.867 13.4314 119.983 13.4683C121.082 13.8214 122.176 14.1896 123.265 14.5727C123.38 14.6146 123.473 14.6997 123.526 14.81C123.578 14.9202 123.586 15.0467 123.546 15.1622C123.506 15.2776 123.421 15.3722 123.312 15.4253C123.202 15.4784 123.075 15.4857 122.96 15.4455C121.879 15.0643 120.793 14.699 119.702 14.3498C119.695 14.3452 119.688 14.3426 119.679 14.339ZM129.384 17.9318L129.368 17.9254C128.314 17.4773 127.252 17.0472 126.184 16.6353C126.07 16.591 125.978 16.5033 125.929 16.3914C125.879 16.2795 125.876 16.1526 125.92 16.0384C125.942 15.982 125.974 15.9304 126.016 15.8866C126.057 15.8428 126.107 15.8076 126.162 15.7831C126.217 15.7586 126.277 15.7452 126.337 15.7437C126.397 15.7422 126.457 15.7526 126.514 15.7744L126.515 15.7749C127.593 16.1911 128.664 16.6255 129.727 17.0778C129.783 17.1014 129.833 17.1358 129.875 17.1789C129.917 17.222 129.951 17.2731 129.973 17.3292C129.996 17.3853 130.007 17.4452 130.006 17.5057C130.006 17.5661 129.993 17.6258 129.97 17.6814C129.923 17.791 129.836 17.8784 129.727 17.9251C129.618 17.9718 129.495 17.9742 129.384 17.9318Z" fill="#F4FBF9"/>
<g clip-path="url(#clip0_1_7782)">
<path d="M30.0121 67.5253C28.5489 66.2304 27.7589 64.6274 27.6423 62.7165C27.5257 60.8055 28.1149 59.1184 29.4098 57.6551L58.5925 24.6791C59.8875 23.2159 61.4904 22.4259 63.4014 22.3093C65.3124 22.1927 66.9995 22.7819 68.4627 24.0768L97.4951 49.7695C96.7171 50.3723 96.0069 51.0269 95.3646 51.7334C94.7227 52.4402 94.1326 53.2174 93.5942 54.065L64.1716 28.0269L74.0819 62.6226L90.4483 65.2073C90.5333 66.1365 90.6925 67.047 90.926 67.9388C91.1599 68.8311 91.4576 69.7053 91.819 70.5614L70.0888 67.1347L60.0292 31.8104L33.7546 61.5002C33.5244 61.7604 33.4188 62.0479 33.438 62.3628C33.4573 62.6776 33.597 62.9502 33.8572 63.1805L78.4194 102.617C78.6796 102.847 78.9672 102.953 79.282 102.933C79.5969 102.914 79.8695 102.774 80.0997 102.514L99.7538 80.3055C100.75 80.8557 101.74 81.2951 102.724 81.6237C103.708 81.9514 104.714 82.1755 105.74 82.296L84.4446 106.359C83.1497 107.822 82.0107 104.383 80.0997 104.5C78.1887 104.617 76.0376 108.257 74.5744 106.962L30.0121 67.5253ZM101.703 72.2669C99.493 70.3114 98.2993 67.8725 98.1214 64.95C97.943 62.0271 98.8313 59.4611 100.786 57.252C102.742 55.0424 105.181 53.8484 108.104 53.6701C111.026 53.4917 113.592 54.3803 115.801 56.3357C118.011 58.2912 119.205 60.7299 119.383 63.6518C119.561 66.5747 118.673 69.141 116.717 71.3506C114.762 73.5597 112.324 74.7534 109.401 74.9318C106.478 75.1106 103.912 74.2223 101.703 72.2669Z" fill="#006A67"/>
</g>
<path d="M79.8484 7.44043L79.9146 10.5579L63.1328 11.8147L79.8484 7.44043Z" fill="white"/>
<path d="M79.5568 14.044L77.3049 16.2616L63.8867 11.7451L79.5568 14.044Z" fill="#006A67"/>
<path d="M63.1289 11.8143L87.4068 16.6642L81.8322 10.0967L63.1289 11.8143Z" fill="#006A67"/>
<path d="M79.8463 7.44039L63.1307 11.8147L76.5241 3L79.8463 7.44039ZM140.986 107.667C135.534 107.769 134.091 108.201 128.432 108.023C125.736 108.048 122.859 107.972 120.223 107.921C118.97 107.591 116.767 107.921 115.281 107.642L114.711 107.82C114.201 107.718 113.605 107.667 113.087 107.769L113.121 107.82C112.361 107.693 111.497 107.769 111.125 107.693L111.16 107.743L110.235 107.718L110.391 107.794C109.06 107.642 107.695 107.642 106.485 107.693L106.589 107.464C104.006 107.718 103.064 107.261 100.74 107.54L100.774 107.591C97.8278 107.007 96.1255 107.997 93.0928 107.439C93.473 107.515 92.9285 107.54 92.9632 107.616C91.5634 107.566 90.0773 107.515 90.0514 107.083C89.0318 107.083 89.222 107.21 89.0923 107.388C89.1011 107.21 88.2111 107.108 87.4161 107.108L87.779 107.185L85.498 107.108L85.9472 106.753C84.7376 106.854 85.6363 107.185 84.4871 107.108L84.5042 106.804C82.8367 106.854 81.8517 107.312 80.236 107.54C73.5139 107.667 66.2905 106.905 60.0436 107.439L59.7671 107.667C59.6462 107.997 58.039 107.185 57.8056 107.489L57.0799 107.337C56.8725 107.388 56.4405 107.464 56.8035 107.54C56.1296 107.566 56.1122 107.489 55.6285 107.413L54.9026 107.616C52.25 107.769 49.9949 107.388 47.204 107.464C43.8517 107.87 37.5357 107.489 33.8979 107.286C28.7831 106.804 22.8383 108.099 17.6023 107.54C17.4295 107.591 16.989 107.489 16.9975 107.439L12.2023 107.489C12.2023 107.489 -11.0316 107.616 6.62046 104.899L6.49955 104.822C9.12616 104.644 10.7765 104.619 12.5824 104.975C12.8676 104.543 14.7339 104.924 15.3474 104.797L15.2868 104.771C16.8853 105.102 18.5788 104.492 20.1255 104.797C20.0649 104.771 20.0305 104.644 19.6762 104.644C20.7993 104.695 22.3372 104.797 22.4237 104.543C25.1109 104.619 28.8521 104.492 30.5716 104.899L30.4506 104.822C31.4269 105.102 31.7206 104.873 32.818 105C32.8786 104.975 32.9563 104.949 32.9389 104.924C34.0104 105.203 36.0581 104.975 36.9134 105.076L36.9653 104.899L39.0908 104.949L38.2961 104.975C38.5725 105.432 39.903 104.67 41.4409 104.975C42.8839 104.924 44.3702 105.94 45.8647 105.711C46.582 105.94 45.234 105.356 46.3055 105.534C46.3402 105.28 45.8044 105.381 46.0809 105.178C47.1265 105.305 47.8003 104.924 49.0964 105.102L49.1483 104.924C50.833 105.28 52.3278 104.67 53.4512 105C55.1878 105.153 54.6174 104.441 56.432 104.797L57.1405 104.543C57.9181 104.492 57.6935 104.848 58.5575 104.721C58.5057 104.568 59.6462 104.594 59.1364 104.441C61.0804 104.187 63.085 104.797 65.6511 104.365C66.2043 104.67 67.5001 104.492 67.9149 104.721C67.984 104.594 70.4984 104.695 69.0555 104.39C68.9346 104.365 68.71 104.365 68.7272 104.416L68.5544 104.238C70.0145 103.882 71.2069 104.441 72.6583 104.365C72.2266 104.416 71.6562 104.416 72.0363 104.543L73.3843 104.517L73.1078 104.365L75.1122 104.263L74.8357 104.467C75.8122 104.365 76.1577 104.035 77.2639 104.314C77.765 104.467 76.3392 104.568 77.3673 104.644C78.6806 104.517 80.6421 104.314 82.3097 104.263C82.1541 104.492 82.6034 104.467 83.07 104.517L83.1219 104.34C84.8932 104.594 83.7698 103.933 85.5326 104.136L85.3771 104.009L85.8435 104.416C87.4335 104.797 86.6991 104.035 88.4616 104.543C87.7618 104.517 88.1333 104.949 88.9886 104.873L88.7727 104.695C89.2479 104.746 89.4035 104.822 89.7231 104.771C89.4379 104.67 89.5762 104.517 90.276 104.543L89.8096 104.314L91.1313 104.644C92.151 104.441 93.7667 104.695 94.1902 104.441C94.1902 104.441 96.3848 104.314 96.8859 104.594C96.4451 104.416 97.655 104.34 97.3092 104.136C97.8796 104.34 99.5556 104.492 100.23 104.289L100.1 104.263C102.589 104.035 104.351 104.568 106.58 104.289C106.477 104.517 107.66 104.39 107.367 104.67C109.674 104.949 111.574 104.086 112.412 104.975C113.467 105.026 113.657 104.771 114.201 104.721L113.951 104.67C115.921 104.746 116.491 104.746 117.951 104.721C118.677 104.797 118.798 105.203 120.102 105.102C119.679 104.949 120.215 104.975 120.699 104.975C120.388 104.949 120.293 104.899 120.932 104.771C121.018 104.822 121.165 104.848 121.295 104.873C121.303 104.873 121.329 104.848 121.312 104.822C122.124 104.873 121.986 104.924 121.606 104.949C121.623 104.975 121.597 105 121.476 105.051C122.323 104.848 123.835 105.076 123.939 104.797C126.393 104.873 128.146 105.153 130.186 105.254C130.419 105.102 129.935 104.975 129.348 104.924L130.799 104.975C130.79 104.771 129.97 104.848 129.52 104.822C131.248 104.492 133.08 105.153 135.102 104.848L135.525 105L135.646 104.975C135.638 105.051 136.096 105.178 136.389 105.203C136.674 105.026 136.372 104.797 137.374 104.797C138.169 104.619 139.621 104.873 140.658 104.975C140.096 105 140.278 105.102 140.519 105.178C141.021 105.178 141.306 105 141.695 105.076L141.746 104.848C141.548 105.076 143.051 105.102 143.241 105.178C143.526 105 142.464 105.026 142.342 104.899C144.347 104.924 143.345 104.898 145.358 104.924C146.429 105.102 145.159 105.153 145.678 105.356C146.619 105.407 147.544 105.559 148.633 105.432L148.287 105.635C150.067 105.813 151.13 105.788 152.322 105.559C165.559 107.286 155.113 107.921 155.113 107.921C149.877 108.455 147.19 107.845 140.986 107.667Z" fill="#006A67"/>
<path d="M134.343 56.675C133.202 57.3345 131.744 56.9431 131.086 55.8009C130.427 54.6587 130.818 53.1982 131.958 52.5388C133.099 51.8793 134.557 52.2707 135.216 53.4129C135.874 54.5551 135.483 56.0156 134.343 56.675Z" fill="#FDCF07"/>
<path d="M20.7925 84.5091C22.352 84.5091 23.6163 85.7753 23.6163 87.3371C23.6163 88.8989 22.352 90.165 20.7925 90.165C19.233 90.165 17.9688 88.8989 17.9688 87.3371C17.9688 85.7753 19.233 84.5091 20.7925 84.5091Z" fill="#FDCF07"/>
<path d="M46.3312 29.7504C45.2693 29.7504 44.4085 30.6125 44.4085 31.676C44.4085 32.7395 45.2693 33.6016 46.3312 33.6016C47.3931 33.6016 48.2539 32.7395 48.2539 31.676C48.2539 30.6125 47.3931 29.7504 46.3312 29.7504Z" fill="#F4FBF9"/>
<path d="M34.3982 84.4796C33.4122 84.4796 32.6128 85.2801 32.6128 86.2676C32.6128 87.2551 33.4122 88.0557 34.3982 88.0557C35.3842 88.0557 36.1836 87.2551 36.1836 86.2676C36.1836 85.2801 35.3842 84.4796 34.3982 84.4796Z" fill="#F4FBF9"/>
<path d="M9.40212 54.7726C8.41608 54.7726 7.61674 55.5731 7.61674 56.5606C7.61674 57.5481 8.41608 58.3486 9.40212 58.3486C10.3882 58.3486 11.1875 57.5481 11.1875 56.5606C11.1875 55.5731 10.3882 54.7726 9.40212 54.7726Z" fill="#F4FBF9"/>
<path d="M23.7189 32.0794C26.3186 32.0794 28.4261 34.1901 28.4261 36.7936C28.4261 39.3972 26.3186 41.5078 23.7189 41.5078C21.1192 41.5078 19.0117 39.3972 19.0117 36.7936C19.0117 34.1901 21.1192 32.0794 23.7189 32.0794Z" fill="#F15756"/>
<path d="M97.8994 28.9434C98.764 29.8093 100.166 29.8093 101.03 28.9434C101.895 28.0776 101.895 26.6738 101.03 25.808C100.166 24.9421 98.764 24.9421 97.8994 25.808C97.0349 26.6738 97.0349 28.0776 97.8994 28.9434Z" fill="#F4FBF9"/>
<path d="M130.337 78.033C128.788 76.482 128.788 73.9672 130.337 72.4162C131.886 70.8651 134.397 70.8651 135.946 72.4162C137.494 73.9672 137.494 76.482 135.946 78.033C134.397 79.5841 131.886 79.5841 130.337 78.033Z" fill="#F15756"/>
<defs>
<linearGradient id="paint0_linear_1_7782" x1="23.7687" y1="156.721" x2="149.93" y2="-36.3529" gradientUnits="userSpaceOnUse">
<stop stop-color="white"/>
<stop offset="1" stop-color="#EEEEEE"/>
</linearGradient>
<linearGradient id="paint1_linear_1_7782" x1="99.1417" y1="58.8428" x2="145.206" y2="13.9349" gradientUnits="userSpaceOnUse">
<stop stop-color="white"/>
<stop offset="1" stop-color="#EEEEEE"/>
</linearGradient>
<clipPath id="clip0_1_7782">
<rect width="92.8307" height="92.8307" fill="white" transform="translate(67.5195) rotate(41.5079)"/>
</clipPath>
</defs>
</svg>
