<svg width="14" height="18" viewBox="0 0 14 18" fill="none" xmlns="http://www.w3.org/2000/svg">
<path d="M6.9987 8.99935C8.1237 8.99935 9.29731 8.88476 10.5195 8.6556C11.7418 8.42643 12.7904 8.12435 13.6654 7.74935V16.0827C12.832 16.4577 11.8181 16.7598 10.6237 16.9889C9.42925 17.2181 8.22092 17.3327 6.9987 17.3327C5.77647 17.3327 4.56814 17.2181 3.3737 16.9889C2.17925 16.7598 1.16536 16.4577 0.332031 16.0827V7.74935C1.20703 8.12435 2.25564 8.42643 3.47786 8.6556C4.70009 8.88476 5.8737 8.99935 6.9987 8.99935ZM11.9987 14.8327V10.041C11.3043 10.2355 10.5022 10.3882 9.59245 10.4993C8.68272 10.6105 7.81814 10.666 6.9987 10.666C6.17925 10.666 5.31467 10.6105 4.40495 10.4993C3.49523 10.3882 2.69314 10.2355 1.9987 10.041V14.8327C2.69314 15.0827 3.49175 15.2841 4.39453 15.4368C5.29731 15.5896 6.16536 15.666 6.9987 15.666C7.83203 15.666 8.70009 15.5896 9.60286 15.4368C10.5056 15.2841 11.3043 15.0827 11.9987 14.8327ZM6.9987 0.666016C7.91536 0.666016 8.70009 0.992404 9.35286 1.64518C10.0056 2.29796 10.332 3.08268 10.332 3.99935C10.332 4.91602 10.0056 5.70074 9.35286 6.35352C8.70009 7.00629 7.91536 7.33268 6.9987 7.33268C6.08203 7.33268 5.29731 7.00629 4.64453 6.35352C3.99175 5.70074 3.66536 4.91602 3.66536 3.99935C3.66536 3.08268 3.99175 2.29796 4.64453 1.64518C5.29731 0.992404 6.08203 0.666016 6.9987 0.666016ZM6.9987 5.66601C7.45703 5.66601 7.84939 5.50282 8.17578 5.17643C8.50217 4.85004 8.66536 4.45768 8.66536 3.99935C8.66536 3.54102 8.50217 3.14865 8.17578 2.82227C7.84939 2.49588 7.45703 2.33268 6.9987 2.33268C6.54036 2.33268 6.148 2.49588 5.82161 2.82227C5.49523 3.14865 5.33203 3.54102 5.33203 3.99935C5.33203 4.45768 5.49523 4.85004 5.82161 5.17643C6.148 5.50282 6.54036 5.66601 6.9987 5.66601Z" fill="#006A67"/>
</svg>
