<svg width="20" height="18" viewBox="0 0 20 18" fill="none" xmlns="http://www.w3.org/2000/svg">
<path d="M2.30775 17.5C1.80258 17.5 1.375 17.325 1.025 16.975C0.675 16.625 0.5 16.1974 0.5 15.6923V5.30775C0.5 4.80258 0.675 4.375 1.025 4.025C1.375 3.675 1.80258 3.5 2.30775 3.5H6.5V1.80775C6.5 1.30258 6.675 0.875 7.025 0.525C7.375 0.175 7.80258 0 8.30775 0H11.6923C12.1974 0 12.625 0.175 12.975 0.525C13.325 0.875 13.5 1.30258 13.5 1.80775V3.5H17.6923C18.1974 3.5 18.625 3.675 18.975 4.025C19.325 4.375 19.5 4.80258 19.5 5.30775V15.6923C19.5 16.1974 19.325 16.625 18.975 16.975C18.625 17.325 18.1974 17.5 17.6923 17.5H2.30775ZM8 3.5H12V1.80775C12 1.73075 11.9679 1.66025 11.9038 1.59625C11.8398 1.53208 11.7692 1.5 11.6923 1.5H8.30775C8.23075 1.5 8.16025 1.53208 8.09625 1.59625C8.03208 1.66025 8 1.73075 8 1.80775V3.5ZM18 11.75H12.5V13.5H7.5V11.75H2V15.6923C2 15.7692 2.03208 15.8398 2.09625 15.9038C2.16025 15.9679 2.23075 16 2.30775 16H17.6923C17.7693 16 17.8398 15.9679 17.9038 15.9038C17.9679 15.8398 18 15.7692 18 15.6923V11.75ZM9 12H11V10H9V12ZM2 10.25H7.5V8.5H12.5V10.25H18V5.30775C18 5.23075 17.9679 5.16025 17.9038 5.09625C17.8398 5.03208 17.7693 5 17.6923 5H2.30775C2.23075 5 2.16025 5.03208 2.09625 5.09625C2.03208 5.16025 2 5.23075 2 5.30775V10.25Z" fill="#1C1B1F"/>
</svg>
