<svg width="24" height="24" viewBox="0 0 24 24" fill="none" xmlns="http://www.w3.org/2000/svg">
<mask id="mask0_1891_14156" style="mask-type:alpha" maskUnits="userSpaceOnUse" x="0" y="0" width="24" height="24">
<rect width="24" height="24" fill="#D9D9D9"/>
</mask>
<g mask="url(#mask0_1891_14156)">
<path d="M16 22V19.75C15.0667 19.45 14.2833 18.9167 13.65 18.15C13.0167 17.3833 12.65 16.5 12.55 15.5H14.55C14.6833 16.2167 15.0208 16.8125 15.5625 17.2875C16.1042 17.7625 16.75 18 17.5 18H20.5C20.9167 18 21.2708 18.1458 21.5625 18.4375C21.8542 18.7292 22 19.0833 22 19.5V22H16ZM19 17C18.45 17 17.9792 16.8042 17.5875 16.4125C17.1958 16.0208 17 15.55 17 15C17 14.45 17.1958 13.9792 17.5875 13.5875C17.9792 13.1958 18.45 13 19 13C19.55 13 20.0208 13.1958 20.4125 13.5875C20.8042 13.9792 21 14.45 21 15C21 15.55 20.8042 16.0208 20.4125 16.4125C20.0208 16.8042 19.55 17 19 17ZM9 14C9 11.5 9.875 9.375 11.625 7.625C13.375 5.875 15.5 5 18 5V7C16.05 7 14.3958 7.67917 13.0375 9.0375C11.6792 10.3958 11 12.05 11 14H9ZM13 14C13 12.6167 13.4875 11.4375 14.4625 10.4625C15.4375 9.4875 16.6167 9 18 9V11C17.1667 11 16.4583 11.2917 15.875 11.875C15.2917 12.4583 15 13.1667 15 14H13ZM2 11V8.5C2 8.08333 2.14583 7.72917 2.4375 7.4375C2.72917 7.14583 3.08333 7 3.5 7H6.5C7.25 7 7.89583 6.7625 8.4375 6.2875C8.97917 5.8125 9.31667 5.21667 9.45 4.5H11.45C11.35 5.5 10.9833 6.38333 10.35 7.15C9.71667 7.91667 8.93333 8.45 8 8.75V11H2ZM5 6C4.45 6 3.97917 5.80417 3.5875 5.4125C3.19583 5.02083 3 4.55 3 4C3 3.45 3.19583 2.97917 3.5875 2.5875C3.97917 2.19583 4.45 2 5 2C5.55 2 6.02083 2.19583 6.4125 2.5875C6.80417 2.97917 7 3.45 7 4C7 4.55 6.80417 5.02083 6.4125 5.4125C6.02083 5.80417 5.55 6 5 6Z" fill="white"/>
</g>
</svg>
