<svg width="80" height="80" viewBox="0 0 80 80" fill="none" xmlns="http://www.w3.org/2000/svg">
<path d="M76.1083 33.6331L76.5258 36.8045L76.6654 40.0002L76.5258 43.196L76.1083 46.3673L75.416 49.4903L74.4541 52.541L73.23 55.4962L71.753 58.3336L70.0343 61.0314L68.087 63.5691L65.9259 65.9275L63.5676 68.0885L61.0298 70.0358L58.332 71.7545L55.4947 73.2315L52.5394 74.4556L49.4887 75.4175L46.3658 76.1099L43.1944 76.5274L39.9987 76.6669L36.803 76.5274L33.6316 76.1099L30.5087 75.4175L27.458 74.4556L24.5027 73.2315L21.6654 71.7545L18.9676 70.0358L16.4298 68.0885L14.0714 65.9275L11.9104 63.5691L9.96312 61.0314L8.24443 58.3336L6.76741 55.4962L5.5433 52.541L4.58142 49.4903L3.88908 46.3673L3.47156 43.196L3.33203 40.0002L3.47156 36.8045L3.88908 33.6331L4.58142 30.5102L5.5433 27.4595L6.76741 24.5042L8.24443 21.6669L9.96312 18.9691L11.9104 16.4314L14.0714 14.073L16.4298 11.9119L18.9676 9.96467L21.6654 8.24598L24.5027 6.76896L27.458 5.54485L30.5087 4.58296L33.6316 3.89062" stroke="#FFE087" stroke-width="4" stroke-linecap="round"/>
<path d="M46.3672 3.89062L49.4901 4.58296L52.5408 5.54485L55.4961 6.76896L58.3334 8.24598L61.0312 9.96467L63.569 11.9119L65.9273 14.073L68.0884 16.4314L70.0357 18.9691L71.7544 21.6669" stroke="#006A67" stroke-width="4" stroke-linecap="round"/>
</svg>
