<svg width="11" height="17" viewBox="0 0 11 17" fill="none" xmlns="http://www.w3.org/2000/svg">
<path d="M1.25 16.25L3.35 5.675L2 6.2V8.75H0.5V5.225L4.2875 3.6125C4.4625 3.5375 4.64687 3.49375 4.84062 3.48125C5.03437 3.46875 5.21875 3.49375 5.39375 3.55625C5.56875 3.61875 5.73438 3.70625 5.89062 3.81875C6.04688 3.93125 6.175 4.075 6.275 4.25L7.025 5.45C7.35 5.975 7.79063 6.40625 8.34688 6.74375C8.90313 7.08125 9.5375 7.25 10.25 7.25V8.75C9.375 8.75 8.59375 8.56875 7.90625 8.20625C7.21875 7.84375 6.63125 7.38125 6.14375 6.81875L5.675 9.125L7.25 10.625V16.25H5.75V11.375L4.175 10.175L2.825 16.25H1.25ZM6.125 3.125C5.7125 3.125 5.35938 2.97813 5.06563 2.68438C4.77187 2.39062 4.625 2.0375 4.625 1.625C4.625 1.2125 4.77187 0.859375 5.06563 0.565625C5.35938 0.271875 5.7125 0.125 6.125 0.125C6.5375 0.125 6.89063 0.271875 7.18438 0.565625C7.47813 0.859375 7.625 1.2125 7.625 1.625C7.625 2.0375 7.47813 2.39062 7.18438 2.68438C6.89063 2.97813 6.5375 3.125 6.125 3.125Z" fill="#006A67"/>
</svg>
