<svg width="500" height="373" viewBox="0 0 500 373" fill="none" xmlns="http://www.w3.org/2000/svg">
<g clip-path="url(#clip0_1003_31190)">
<path d="M500 327.45H0V327.7H500V327.45Z" fill="#EBEBEB"/>
<path d="M449.901 343.54H416.781V343.79H449.901V343.54Z" fill="#EBEBEB"/>
<path d="M331.221 346.26H322.531V346.51H331.221V346.26Z" fill="#EBEBEB"/>
<path d="M415.78 334.26H396.59V334.51H415.78V334.26Z" fill="#EBEBEB"/>
<path d="M95.6509 335.94H52.4609V336.19H95.6509V335.94Z" fill="#EBEBEB"/>
<path d="M110.889 335.94H104.559V336.19H110.889V335.94Z" fill="#EBEBEB"/>
<path d="M225.149 340.16H131.469V340.41H225.149V340.16Z" fill="#EBEBEB"/>
<path d="M237.009 282.85H43.9092C40.7592 282.85 38.1992 280.29 38.1992 277.14V5.71C38.1992 2.56 40.7592 0 43.9092 0H237.009C240.159 0 242.719 2.56 242.719 5.71V277.14C242.719 280.29 240.159 282.85 237.009 282.85ZM43.9092 0.25C40.8992 0.25 38.4492 2.7 38.4492 5.71V277.14C38.4492 280.15 40.8992 282.6 43.9092 282.6H237.009C240.019 282.6 242.469 280.15 242.469 277.14V5.71C242.469 2.7 240.019 0.25 237.009 0.25H43.9092Z" fill="#EBEBEB"/>
<path d="M453.31 282.85H260.21C257.06 282.85 254.5 280.29 254.5 277.14V5.71C254.5 2.56 257.06 0 260.21 0H453.31C456.46 0 459.02 2.56 459.02 5.71V277.14C459.02 280.29 456.46 282.85 453.31 282.85ZM260.21 0.25C257.2 0.25 254.75 2.7 254.75 5.71V277.14C254.75 280.15 257.2 282.6 260.21 282.6H453.31C456.32 282.6 458.77 280.15 458.77 277.14V5.71C458.77 2.7 456.32 0.25 453.31 0.25H260.21Z" fill="#EBEBEB"/>
<path d="M289.689 119.11L427.469 119.11V28.8803L289.689 28.8803V119.11Z" fill="#E6E6E6"/>
<path d="M285.48 119.11L425.5 119.11V28.8803L285.48 28.8803V119.11Z" fill="#F0F0F0"/>
<path d="M289.689 136.81L427.469 136.81V119.1L289.689 119.1V136.81Z" fill="#E6E6E6"/>
<path d="M278.488 136.81L418.508 136.81V119.1L278.488 119.1V136.81Z" fill="#F0F0F0"/>
<path d="M419.617 113.23V34.7695L291.367 34.7695V113.23L419.617 113.23Z" fill="#FAFAFA"/>
<path d="M390.698 113.22L374.318 34.7695H348.758L365.138 113.22H390.698Z" fill="white"/>
<path d="M416.897 107.36C417.127 107.36 417.317 107.17 417.317 106.94V38.5899C417.317 38.3599 417.127 38.1699 416.897 38.1699C416.667 38.1699 416.477 38.3599 416.477 38.5899V106.94C416.477 107.17 416.667 107.36 416.897 107.36Z" fill="#F0F0F0"/>
<path d="M359.647 113.22L343.267 34.7695H333.297L349.687 113.22H359.647Z" fill="white"/>
<path d="M292.117 113.23V34.7695H291.367V113.23H292.117Z" fill="#E6E6E6"/>
<path opacity="0.6" d="M284.09 43.6398H421.88L422.42 37.0498H284.64L284.09 43.6398Z" fill="#EBEBEB"/>
<path opacity="0.6" d="M284.09 54.4396H421.88L422.42 47.8496H284.64L284.09 54.4396Z" fill="#EBEBEB"/>
<path opacity="0.6" d="M284.09 65.2402H421.88L422.42 58.6602H284.64L284.09 65.2402Z" fill="#EBEBEB"/>
<path opacity="0.6" d="M284.09 76.04H421.88L422.42 69.46H284.64L284.09 76.04Z" fill="#EBEBEB"/>
<path opacity="0.6" d="M284.09 86.8498H421.88L422.42 80.2598H284.64L284.09 86.8498Z" fill="#EBEBEB"/>
<path opacity="0.6" d="M284.09 97.6496H421.88L422.42 91.0596H284.64L284.09 97.6496Z" fill="#EBEBEB"/>
<path d="M407.687 261.83H378.797V267.53H407.687V261.83Z" fill="#E6E6E6"/>
<path d="M324.307 327.45H329.637V196.38H324.307V327.45Z" fill="#E6E6E6"/>
<path d="M305.829 267.52H378.789V261.82H305.829V267.52Z" fill="#F5F5F5"/>
<path d="M407.687 293H378.797V298.7H407.687V293Z" fill="#E6E6E6"/>
<path d="M305.829 298.689H378.789V292.989H305.829V298.689Z" fill="#F5F5F5"/>
<path d="M407.687 199.5H378.797V205.2H407.687V199.5Z" fill="#E6E6E6"/>
<path d="M305.829 205.189H378.789V199.489H305.829V205.189Z" fill="#F5F5F5"/>
<path d="M407.687 230.66H378.797V236.36H407.687V230.66Z" fill="#E6E6E6"/>
<path d="M305.829 236.36H378.789V230.66H305.829V236.36Z" fill="#F5F5F5"/>
<path d="M397.279 327.45H402.609V196.38H397.279V327.45Z" fill="#E6E6E6"/>
<path d="M373.459 327.45H378.789V196.38H373.459V327.45Z" fill="#F5F5F5"/>
<path d="M305.826 327.45H311.156V196.38H305.826V327.45Z" fill="#F5F5F5"/>
<path d="M65.3809 327.449H119.961L119.961 221.559H65.3809L65.3809 327.449Z" fill="#E6E6E6"/>
<path d="M79.9511 327.449H65.3711V312.829H95.2311L79.9511 327.449Z" fill="#FAFAFA"/>
<path d="M214.182 327.449H268.762V221.559H214.182V327.449Z" fill="#E6E6E6"/>
<path d="M65.3802 322.42H226.91V221.56H65.3802V322.42Z" fill="#FAFAFA"/>
<path d="M212.331 327.449H226.901V312.829H197.051L212.331 327.449Z" fill="#FAFAFA"/>
<path d="M76.6815 284.38H215.602V259.14H76.6815V284.38Z" fill="#F0F0F0"/>
<path d="M76.6815 315.02H215.602V289.78H76.6815V315.02Z" fill="#F0F0F0"/>
<path d="M189.2 261.84H103.09C100.56 261.84 98.5095 259.79 98.5095 257.26V256.95H193.77V257.26C193.77 259.79 191.72 261.84 189.19 261.84H189.2Z" fill="#FAFAFA"/>
<path d="M76.6815 253.75L215.602 253.75V228.51L76.6815 228.51V253.75Z" fill="#F0F0F0"/>
<path d="M189.2 231.199H103.09C100.56 231.199 98.5095 229.149 98.5095 226.619V226.309H193.77V226.619C193.77 229.149 191.72 231.199 189.19 231.199H189.2Z" fill="#FAFAFA"/>
<path d="M189.2 292.47H103.09C100.56 292.47 98.5095 290.42 98.5095 287.89V287.58H193.77V287.89C193.77 290.42 191.72 292.47 189.19 292.47H189.2Z" fill="#FAFAFA"/>
<path d="M74.0677 119.11L211.848 119.11V28.8803L74.0677 28.8803V119.11Z" fill="#E6E6E6"/>
<path d="M69.8706 119.11L209.891 119.11V28.8803L69.8706 28.8803V119.11Z" fill="#F0F0F0"/>
<path d="M74.0677 136.81L211.848 136.81V119.1L74.0677 119.1V136.81Z" fill="#E6E6E6"/>
<path d="M62.8589 136.81L202.879 136.81V119.1L62.8589 119.1V136.81Z" fill="#F0F0F0"/>
<path d="M204 113.23V34.7695L75.75 34.7695V113.23L204 113.23Z" fill="#FAFAFA"/>
<path d="M175.081 113.22L158.701 34.7695H133.141L149.521 113.22H175.081Z" fill="white"/>
<path d="M201.268 107.36C201.498 107.36 201.688 107.17 201.688 106.94V38.5899C201.688 38.3599 201.498 38.1699 201.268 38.1699C201.038 38.1699 200.848 38.3599 200.848 38.5899V106.94C200.848 107.17 201.038 107.36 201.268 107.36Z" fill="#F0F0F0"/>
<path d="M144.03 113.22L127.65 34.7695H117.68L134.06 113.22H144.03Z" fill="white"/>
<path d="M76.5 113.23V34.7695H75.75V113.23H76.5Z" fill="#E6E6E6"/>
<path opacity="0.6" d="M68.4688 43.6398H206.249L206.789 37.0498H69.0088L68.4688 43.6398Z" fill="#EBEBEB"/>
<path opacity="0.6" d="M68.4688 47.3495H206.249L206.789 40.7695H69.0088L68.4688 47.3495Z" fill="#EBEBEB"/>
<path opacity="0.6" d="M68.4688 51.0695H206.249L206.789 44.4795H69.0088L68.4688 51.0695Z" fill="#EBEBEB"/>
<path opacity="0.6" d="M68.4688 54.7802H206.249L206.789 48.2002H69.0088L68.4688 54.7802Z" fill="#EBEBEB"/>
<path opacity="0.6" d="M68.4688 58.5002H206.249L206.789 51.9102H69.0088L68.4688 58.5002Z" fill="#EBEBEB"/>
<path opacity="0.6" d="M68.4688 62.2199H206.249L206.789 55.6299H69.0088L68.4688 62.2199Z" fill="#EBEBEB"/>
<path d="M96.0213 218.31H100.781V165.22H96.0213V218.31Z" fill="#F5F5F5"/>
<path d="M96.6187 218.28H97.9688V165.19H96.6187V218.28Z" fill="#FAFAFA"/>
<path d="M98.5286 218.28H99.0586V165.19H98.5286V218.28Z" fill="#FAFAFA"/>
<path d="M116.031 221.56H80.7713C80.7713 219.11 82.7612 217.12 85.2113 217.12H111.591C114.041 217.12 116.031 219.11 116.031 221.56Z" fill="#F0F0F0"/>
<path d="M89.8387 198.19C90.5887 198.19 91.2087 197.57 91.2087 196.82V162.01C91.2087 161.26 90.5887 160.64 89.8387 160.64C89.0887 160.64 88.4688 161.26 88.4688 162.01V196.82C88.4688 197.57 89.0887 198.19 89.8387 198.19Z" fill="#F0F0F0"/>
<path d="M77.0703 177.85H119.72L114.81 148.05H81.9803L77.0703 177.85Z" fill="#E0E0E0"/>
<path d="M249.999 372.61C357.082 372.61 443.889 367.542 443.889 361.29C443.889 355.038 357.082 349.97 249.999 349.97C142.917 349.97 56.1094 355.038 56.1094 361.29C56.1094 367.542 142.917 372.61 249.999 372.61Z" fill="#F5F5F5"/>
<path d="M104.122 147.411L103.125 147.482L104.453 165.925L105.451 165.853L104.122 147.411Z" fill="#006A67"/>
<path d="M106.13 175.373L105.133 175.445L105.633 182.387L106.63 182.315L106.13 175.373Z" fill="#006A67"/>
<path d="M337.713 260.21H123.553C118.713 260.21 114.463 256.25 114.113 251.4L103.593 105.27C103.243 100.43 106.923 96.46 111.763 96.46H325.923C330.763 96.46 335.013 100.42 335.363 105.27L345.883 251.4C346.233 256.24 342.553 260.21 337.713 260.21Z" fill="#006A67"/>
<path d="M338.534 260.21H124.374C119.534 260.21 115.284 256.25 114.934 251.4L104.414 105.27C104.064 100.43 107.744 96.46 112.584 96.46H326.744C331.584 96.46 335.834 100.42 336.184 105.27L346.704 251.4C347.054 256.24 343.374 260.21 338.534 260.21Z" fill="#006A67"/>
<path opacity="0.5" d="M338.534 260.21H124.374C119.534 260.21 115.284 256.25 114.934 251.4L104.414 105.27C104.064 100.43 107.744 96.46 112.584 96.46H326.744C331.584 96.46 335.834 100.42 336.184 105.27L346.704 251.4C347.054 256.24 343.374 260.21 338.534 260.21Z" fill="white"/>
<path d="M327.066 100.87H112.906C112.666 100.87 112.426 100.87 112.186 100.9C106.716 101.35 107.826 109.68 113.356 109.68H327.876C333.406 109.68 333.316 101.35 327.776 100.9C327.536 100.88 327.296 100.87 327.056 100.87H327.066Z" fill="#006A67"/>
<path d="M118.484 105.27C118.564 106.39 117.724 107.29 116.614 107.29C115.504 107.29 114.534 106.39 114.454 105.27C114.374 104.16 115.214 103.25 116.324 103.25C117.434 103.25 118.404 104.15 118.484 105.27Z" fill="#FAFAFA"/>
<path d="M125.356 105.27C125.436 106.39 124.596 107.29 123.486 107.29C122.376 107.29 121.406 106.39 121.326 105.27C121.246 104.16 122.086 103.25 123.196 103.25C124.306 103.25 125.276 104.15 125.356 105.27Z" fill="#FAFAFA"/>
<path d="M132.215 105.27C132.295 106.39 131.455 107.29 130.345 107.29C129.235 107.29 128.265 106.39 128.185 105.27C128.105 104.16 128.945 103.25 130.055 103.25C131.165 103.25 132.135 104.15 132.215 105.27Z" fill="#FAFAFA"/>
<path d="M332.85 245.62H127.95C126.19 245.62 124.65 244.19 124.53 242.43L115.88 122.26C115.75 120.5 117.08 119.07 118.84 119.07H323.74C325.5 119.07 327.04 120.5 327.16 122.26L335.81 242.43C335.94 244.19 334.61 245.62 332.85 245.62Z" fill="white"/>
<path d="M246.531 199.85L243.191 153.53L233.091 147.44H205.281L209.061 199.85H246.531Z" fill="white"/>
<path d="M246.533 200.33H209.062C208.812 200.33 208.593 200.13 208.583 199.88L204.812 147.48C204.812 147.35 204.853 147.21 204.943 147.11C205.033 147.01 205.162 146.96 205.292 146.96H233.092C233.182 146.96 233.262 146.98 233.342 147.03L243.452 153.11C243.592 153.19 243.672 153.33 243.682 153.49L247.023 199.81C247.023 199.94 246.983 200.08 246.893 200.18C246.803 200.28 246.672 200.33 246.542 200.33H246.533ZM209.512 199.36H246.012L242.732 153.81L232.952 147.93H205.803L209.503 199.36H209.512Z" fill="#006A67"/>
<path d="M243.194 153.53L233.094 147.44L236.804 155.5L243.194 153.53Z" fill="#EBEBEB"/>
<path d="M236.804 155.99C236.624 155.99 236.444 155.88 236.364 155.71L232.654 147.65C232.564 147.46 232.614 147.23 232.774 147.09C232.934 146.95 233.164 146.93 233.344 147.04L243.454 153.12C243.614 153.22 243.704 153.4 243.684 153.59C243.664 153.78 243.524 153.94 243.344 153.99L236.944 155.97C236.944 155.97 236.844 155.99 236.804 155.99ZM234.194 148.67L237.074 154.91L242.034 153.38L234.204 148.67H234.194Z" fill="#006A67"/>
<path d="M220.973 171.05C221.053 172.22 220.173 173.17 219.013 173.17C217.853 173.17 216.823 172.22 216.743 171.05C216.663 169.88 217.543 168.93 218.703 168.93C219.863 168.93 220.893 169.88 220.973 171.05Z" fill="#006A67"/>
<path d="M234.704 171.05C234.784 172.22 233.904 173.17 232.744 173.17C231.584 173.17 230.554 172.22 230.474 171.05C230.394 169.88 231.274 168.93 232.434 168.93C233.594 168.93 234.624 169.88 234.704 171.05Z" fill="#006A67"/>
<path d="M238.584 184.779C238.334 184.779 238.124 184.589 238.104 184.329C237.854 180.929 232.524 178.159 226.204 178.159C222.024 178.159 218.264 179.399 216.394 181.409C215.564 182.299 215.184 183.259 215.254 184.269C215.274 184.539 215.074 184.769 214.804 184.789C214.534 184.809 214.304 184.609 214.284 184.339C214.194 183.069 214.674 181.829 215.684 180.749C217.724 178.559 221.754 177.189 226.204 177.189C233.134 177.189 238.784 180.299 239.074 184.259C239.094 184.529 238.894 184.759 238.624 184.779C238.614 184.779 238.604 184.779 238.584 184.779Z" fill="#006A67"/>
<path d="M213.171 166.76C213.051 166.76 212.931 166.72 212.841 166.63C212.641 166.45 212.631 166.14 212.811 165.95L214.931 163.66C215.111 163.46 215.421 163.45 215.611 163.63C215.811 163.81 215.821 164.12 215.641 164.31L213.521 166.6C213.421 166.7 213.291 166.76 213.161 166.76H213.171Z" fill="#006A67"/>
<path d="M237.581 166.76C237.461 166.76 237.341 166.72 237.251 166.63L234.801 164.34C234.601 164.16 234.591 163.85 234.781 163.66C234.961 163.46 235.271 163.45 235.461 163.64L237.911 165.93C238.111 166.11 238.121 166.42 237.931 166.61C237.831 166.71 237.711 166.76 237.581 166.76Z" fill="#006A67"/>
<path d="M202.262 210.199H204.522L207.782 214.529L207.472 210.199H209.752L210.312 218.029H208.032L204.792 213.729L205.102 218.029H202.822L202.262 210.199Z" fill="#006A67"/>
<path d="M211.333 214.12C211.243 212.84 211.523 211.85 212.183 211.13C212.843 210.41 213.813 210.06 215.083 210.06C216.353 210.06 217.413 210.41 218.173 211.11C218.933 211.81 219.353 212.79 219.443 214.05C219.513 214.97 219.413 215.72 219.143 216.3C218.873 216.89 218.463 217.34 217.903 217.67C217.343 218 216.633 218.16 215.763 218.16C214.893 218.16 214.143 218.02 213.543 217.74C212.943 217.46 212.443 217.01 212.043 216.4C211.643 215.79 211.403 215.03 211.343 214.11L211.333 214.12ZM213.763 214.13C213.823 214.92 214.003 215.49 214.323 215.83C214.643 216.18 215.053 216.35 215.563 216.35C216.073 216.35 216.473 216.18 216.733 215.84C216.993 215.5 217.093 214.89 217.033 214.02C216.983 213.28 216.793 212.74 216.473 212.4C216.153 212.06 215.733 211.89 215.223 211.89C214.713 211.89 214.353 212.06 214.083 212.41C213.813 212.76 213.703 213.33 213.763 214.13Z" fill="#006A67"/>
<path d="M224.151 210.199H227.751C228.461 210.199 229.041 210.299 229.491 210.489C229.941 210.679 230.321 210.959 230.631 211.319C230.941 211.679 231.181 212.099 231.341 212.579C231.501 213.059 231.601 213.559 231.641 214.099C231.701 214.939 231.651 215.589 231.491 216.049C231.331 216.509 231.101 216.899 230.781 217.209C230.461 217.519 230.121 217.729 229.731 217.829C229.211 217.969 228.731 218.039 228.301 218.039H224.701L224.141 210.209L224.151 210.199ZM226.701 211.969L227.011 216.249H227.601C228.111 216.249 228.461 216.189 228.671 216.079C228.881 215.969 229.031 215.769 229.131 215.489C229.231 215.209 229.261 214.759 229.211 214.129C229.151 213.299 228.971 212.729 228.681 212.429C228.391 212.119 227.931 211.969 227.301 211.969H226.701Z" fill="#006A67"/>
<path d="M237.451 216.739H234.701L234.411 218.029H231.941L234.321 210.199H236.961L240.471 218.029H237.941L237.461 216.739H237.451ZM236.821 215.049L235.751 212.229L235.101 215.049H236.821Z" fill="#006A67"/>
<path d="M239.371 210.199H246.731L246.871 212.129H244.401L244.821 218.029H242.401L241.981 212.129H239.511L239.371 210.199Z" fill="#006A67"/>
<path d="M252.373 216.739H249.623L249.333 218.029H246.863L249.243 210.199H251.883L255.393 218.029H252.863L252.383 216.739H252.373ZM251.743 215.049L250.673 212.229L250.023 215.049H251.743Z" fill="#006A67"/>
<path d="M353.69 118.13C354.58 117.68 355.65 117.1 356.63 116.56C357.63 116.01 358.63 115.43 359.61 114.84C361.57 113.63 363.54 112.44 365.42 111.12C369.2 108.51 372.75 105.62 375.93 102.47C376.35 102.09 376.7 101.66 377.09 101.26L377.66 100.65L377.95 100.34L378.09 100.19C378.09 100.19 378.12 100.16 378.1 100.19L378.07 100.24C377.93 100.51 378.05 100.43 378.1 100.17C378.17 99.9204 378.22 99.5204 378.24 99.0804C378.3 97.2604 377.95 94.9704 377.51 92.7604C376.62 88.2704 375.27 83.6604 373.94 79.1404L377.83 77.4404C380.26 81.7904 382.29 86.2204 383.94 91.0404C384.73 93.4804 385.45 95.9304 385.66 98.9304C385.7 99.7004 385.72 100.5 385.58 101.44C385.43 102.36 385.2 103.47 384.36 104.72L384.19 104.95L384.06 105.12L383.91 105.31L383.6 105.68L382.98 106.43C382.56 106.92 382.17 107.45 381.72 107.91C378.27 111.74 374.44 115.12 370.34 118.06C368.3 119.55 366.22 120.96 364.06 122.25C362.98 122.9 361.89 123.53 360.78 124.14C359.66 124.76 358.59 125.31 357.31 125.91L353.68 118.15L353.69 118.13Z" fill="#FFE087"/>
<path d="M344.79 353.23C345.56 353.23 346.41 353.07 347 352.93C347.08 352.91 347.14 352.85 347.15 352.77C347.16 352.69 347.13 352.61 347.06 352.57C346.77 352.38 344.23 350.74 343.25 351.18C343.1 351.25 342.9 351.4 342.86 351.74C342.8 352.18 342.91 352.54 343.19 352.79C343.55 353.12 344.14 353.23 344.79 353.23ZM346.44 352.64C344.98 352.93 343.89 352.88 343.46 352.49C343.28 352.33 343.21 352.09 343.26 351.78C343.28 351.61 343.36 351.56 343.43 351.53C343.94 351.3 345.41 352.01 346.45 352.63L346.44 352.64Z" fill="#006A67"/>
<path d="M346.961 352.93C346.961 352.93 347.031 352.93 347.061 352.9C347.121 352.86 347.161 352.8 347.161 352.73C347.161 352.63 347.151 350.22 346.241 349.41C346.001 349.2 345.721 349.11 345.401 349.14C344.901 349.2 344.771 349.51 344.731 349.69C344.541 350.63 346.061 352.44 346.861 352.89C346.891 352.91 346.921 352.92 346.961 352.92V352.93ZM345.531 349.54C345.691 349.54 345.841 349.6 345.971 349.71C346.511 350.19 346.701 351.55 346.751 352.35C345.951 351.71 345.001 350.36 345.121 349.78C345.141 349.69 345.191 349.57 345.451 349.54C345.481 349.54 345.511 349.54 345.541 349.54H345.531Z" fill="#006A67"/>
<path d="M346.221 93.1106C345.251 98.0806 343.191 108.151 346.671 111.461C346.671 111.461 345.311 116.501 336.081 116.501C325.921 116.501 331.231 111.461 331.231 111.461C336.771 110.141 336.631 106.021 335.661 102.161L346.221 93.1006V93.1106Z" fill="#FFE087"/>
<path d="M329.28 113.47C327.69 113.69 329.04 109.56 329.69 109.13C331.19 108.14 350.541 106.74 350.421 109.09C350.341 110.1 349.87 112.07 349.02 112.74C348.17 113.41 343.2 111.39 329.29 113.47H329.28Z" fill="#006A67"/>
<path d="M332.438 112.08C331.168 112.51 331.288 108.35 331.728 107.85C332.728 106.69 348.388 102.67 348.858 104.94C349.038 105.92 349.128 107.89 348.588 108.65C348.048 109.41 343.448 108.15 332.448 112.08H332.438Z" fill="#006A67"/>
<path d="M326.608 84.1597C326.488 84.1597 326.358 84.1197 326.278 84.0197C325.158 82.6497 323.698 82.7897 323.688 82.7897C323.468 82.8097 323.278 82.6597 323.248 82.4397C323.228 82.2197 323.378 82.0297 323.598 81.9997C323.678 81.9997 325.498 81.8197 326.888 83.5097C327.028 83.6797 326.998 83.9297 326.828 84.0697C326.758 84.1297 326.678 84.1497 326.598 84.1597H326.608Z" fill="#006A67"/>
<path d="M324.669 89.0498C324.669 89.0498 323.809 92.0598 322.699 93.5798C323.669 94.3198 325.139 93.7898 325.139 93.7898L324.669 89.0498Z" fill="#FF5652"/>
<path d="M325.161 87.8298C325.231 88.4998 324.921 89.0798 324.481 89.1298C324.041 89.1698 323.631 88.6598 323.561 87.9898C323.491 87.3198 323.801 86.7398 324.241 86.6898C324.681 86.6398 325.091 87.1598 325.161 87.8298Z" fill="#006A67"/>
<path d="M324.441 86.7104L322.781 86.4004C322.781 86.4004 323.731 87.5804 324.441 86.7104Z" fill="#006A67"/>
<path d="M356.7 352.73H348.32L348.98 333.34H357.36L356.7 352.73Z" fill="#FFE087"/>
<path d="M347.658 351.76H357.068C357.408 351.76 357.688 352 357.738 352.33L358.808 359.78C358.918 360.55 358.258 361.28 357.468 361.27C354.188 361.21 352.608 361.02 348.468 361.02C345.918 361.02 342.198 361.28 338.688 361.28C335.178 361.28 334.988 357.8 336.448 357.49C343.008 356.08 344.048 354.13 346.258 352.27C346.658 351.94 347.158 351.75 347.658 351.75V351.76Z" fill="#006A67"/>
<g opacity="0.2">
<path d="M357.361 333.34H348.981L348.641 343.34H357.021L357.361 333.34Z" fill="black"/>
</g>
<path d="M323.37 123.09C318.19 121.06 313.24 118.85 308.32 116.34C303.4 113.82 298.57 111.15 293.92 107.57C292.76 106.66 291.62 105.66 290.5 104.5C290.22 104.2 289.94 103.92 289.67 103.58C289.38 103.22 289.16 103.01 288.79 102.45C288.11 101.48 287.59 100.17 287.45 98.8401C287.32 97.5101 287.56 96.2301 287.94 95.2201C288.32 94.1901 288.82 93.3401 289.35 92.6101C290.4 91.1501 291.57 90.0601 292.74 89.0901C295.08 87.1501 297.56 85.7401 300.04 84.4201C301.28 83.7601 302.54 83.1701 303.82 82.6201C305.11 82.0601 306.36 81.5501 307.73 81.0801L309.51 84.9301C305.15 87.6801 300.63 90.7001 297.31 94.0901C296.5 94.9301 295.8 95.8101 295.35 96.5801C294.87 97.3701 294.88 97.9601 294.96 97.9101C295 97.9101 294.98 97.8901 295.1 98.0101L295.5 98.4401C295.65 98.6201 295.86 98.8001 296.05 98.9901C296.84 99.7201 297.76 100.46 298.75 101.16C300.73 102.57 302.92 103.89 305.18 105.13C307.43 106.38 309.75 107.58 312.12 108.72C316.83 110.98 321.72 113.15 326.51 115.13L323.38 123.1L323.37 123.09Z" fill="#FFE087"/>
<path d="M311.972 82.1998L313.362 79.1998L307.062 77.0098C307.062 77.0098 305.102 82.9098 307.442 85.6398C309.432 85.3198 311.132 84.0298 311.972 82.1998Z" fill="#FFE087"/>
<path d="M313.349 72.7L308.319 71.25L307.059 77.01L313.349 79.2V72.7Z" fill="#FFE087"/>
<path d="M378.35 79.4897L379.08 72.4697L372.59 73.9897C372.59 73.9897 372.49 80.5697 375.93 81.6197L378.35 79.4897Z" fill="#FFE087"/>
<path d="M375.96 67.5498L371.73 69.5298L372.6 73.9898L379.08 72.4698L375.96 67.5498Z" fill="#FFE087"/>
<path d="M347.538 83.3002C347.848 91.6102 348.148 95.1202 344.398 99.7702C338.748 106.76 328.478 105.32 325.698 97.2702C323.198 90.0302 323.118 77.6602 330.878 73.5802C338.528 69.5602 347.238 75.0002 347.538 83.3102V83.3002Z" fill="#FFE087"/>
<path d="M343.92 99.7502C352.08 96.2302 357.44 88.8002 355.17 77.1802C353 66.0602 345.5 64.9702 342.4 67.2702C339.3 69.5802 331.57 66.1402 326.94 70.0402C318.91 76.8002 326.5 84.0902 330.46 88.4102C332.82 93.2702 335.92 103.21 343.92 99.7502Z" fill="#1D2020"/>
<path d="M340.529 75.1803C343.279 79.1603 348.559 80.2903 352.319 77.6903C356.079 75.0903 356.899 69.7603 354.139 65.7703C351.389 61.7903 346.109 60.6603 342.349 63.2603C338.589 65.8603 337.769 71.1903 340.529 75.1803Z" fill="#1D2020"/>
<path d="M342.649 68.0501C341.469 61.3501 347.809 56.1901 356.289 58.6801C364.759 61.1801 360.279 68.6901 358.539 74.6901C356.799 80.6901 361.359 86.4001 363.269 81.8401C365.179 77.2701 361.969 75.8601 361.969 75.8601C361.969 75.8601 370.969 78.1901 362.609 88.3401C354.249 98.4801 346.679 87.2801 348.729 80.6701C350.379 75.3301 343.759 74.3801 342.649 68.0501Z" fill="#1D2020"/>
<path d="M334.18 70.5806C330.31 68.5606 323.76 66.9305 320.03 73.2005C318.27 76.1705 318.95 80.1906 318.95 80.1906L330.34 80.9505L334.18 70.5806Z" fill="#1D2020"/>
<path d="M317.61 78.2203C317.61 78.2203 317.6 78.2203 317.59 78.2203C317.45 78.2203 317.35 78.0903 317.36 77.9603C317.37 77.7903 317.65 73.7703 320.07 71.2403C325.94 65.1403 332.82 70.2003 334.79 71.9003C334.89 71.9903 334.91 72.1503 334.82 72.2503C334.73 72.3503 334.57 72.3703 334.47 72.2803C332.59 70.6603 326 65.8103 320.44 71.5903C318.14 73.9803 317.87 77.9503 317.86 77.9903C317.86 78.1203 317.74 78.2203 317.61 78.2203Z" fill="#1D2020"/>
<path d="M331.85 88.0806C331.84 89.7006 331.11 91.2806 330.19 92.3606C328.81 93.9806 327.22 93.1806 326.86 91.3906C326.53 89.7806 326.86 86.9906 328.6 86.0206C330.32 85.0606 331.85 86.2406 331.84 88.0906L331.85 88.0806Z" fill="#FFE087"/>
<path d="M330.049 164.17C330.049 164.17 330.579 222.31 335.629 254.71C339.699 280.88 347.239 341.4 347.239 341.4H358.659C358.659 341.4 359.779 282.98 357.709 257.09C352.479 191.59 365.979 179.35 355.079 164.16H330.039L330.049 164.17Z" fill="#006A67"/>
<path opacity="0.1" d="M330.049 164.17C330.049 164.17 330.579 222.31 335.629 254.71C339.699 280.88 347.239 341.4 347.239 341.4H358.659C358.659 341.4 359.779 282.98 357.709 257.09C352.479 191.59 365.979 179.35 355.079 164.16H330.039L330.049 164.17Z" fill="white"/>
<path opacity="0.3" d="M336.059 190.55C340.069 208.1 336.869 235.74 334.679 247.91C332.359 229.43 331.189 205.48 330.609 187.93C332.679 184.57 334.639 184.35 336.059 190.55Z" fill="black"/>
<path d="M345.682 341.63H360.232L360.992 336.53L345.602 336L345.682 341.63Z" fill="#006A67"/>
<path d="M349.828 115.09C351.198 112.37 358.548 110.66 362.578 110.66L365.588 124.02C365.588 124.02 357.578 135.91 354.248 134.65C350.308 133.16 346.908 120.91 349.838 115.08L349.828 115.09Z" fill="#006A67"/>
<path opacity="0.4" d="M349.828 115.09C351.198 112.37 358.548 110.66 362.578 110.66L365.588 124.02C365.588 124.02 357.578 135.91 354.248 134.65C350.308 133.16 346.908 120.91 349.838 115.08L349.828 115.09Z" fill="black"/>
<path d="M341.349 338.36C341.389 338.3 341.389 338.23 341.349 338.16C341.309 338.09 341.229 338.04 341.149 338.06C340.729 338.12 337.029 338.71 336.529 339.77C336.429 339.97 336.449 340.19 336.569 340.39C336.769 340.73 337.059 340.92 337.429 340.96C338.639 341.09 340.389 339.4 341.329 338.39C341.329 338.39 341.349 338.37 341.349 338.36ZM336.909 339.9C337.249 339.34 339.169 338.82 340.629 338.55C339.309 339.89 338.149 340.64 337.469 340.57C337.229 340.55 337.049 340.42 336.909 340.19C336.859 340.1 336.849 340.02 336.889 339.94C336.889 339.93 336.899 339.91 336.909 339.9Z" fill="#006A67"/>
<path d="M341.349 338.36C341.349 338.36 341.359 338.33 341.369 338.32C341.389 338.25 341.369 338.18 341.329 338.13C341.269 338.06 339.779 336.35 338.419 336.26C337.999 336.23 337.629 336.36 337.329 336.63C336.919 337 336.949 337.32 337.059 337.52C337.489 338.38 340.149 338.68 341.229 338.45C341.279 338.44 341.329 338.41 341.359 338.36H341.349ZM337.439 337.1C337.469 337.05 337.519 336.99 337.599 336.92C337.829 336.72 338.089 336.63 338.399 336.65C339.299 336.71 340.319 337.64 340.779 338.11C339.589 338.21 337.669 337.85 337.409 337.33C337.389 337.3 337.359 337.22 337.439 337.09V337.1Z" fill="#006A67"/>
<path d="M350.08 334.81L342.42 338.22L339.01 331.11L334.55 321.81L334.02 320.72L341.68 317.32L342.27 318.53L346.59 327.54L350.08 334.81Z" fill="#FFE087"/>
<path opacity="0.2" d="M346.591 327.54L339.011 331.11L334.551 321.81L342.271 318.53L346.591 327.54Z" fill="black"/>
<path d="M321.069 164.17C321.069 164.17 296.599 225 303.229 253.65C309.229 279.54 335.729 328.57 335.729 328.57L345.979 323.42C345.979 323.42 329.589 264.23 327.809 251.37C324.349 226.35 346.589 191.04 346.589 164.16H321.069V164.17Z" fill="#006A67"/>
<path opacity="0.1" d="M321.069 164.17C321.069 164.17 296.599 225 303.229 253.65C309.229 279.54 335.729 328.57 335.729 328.57L345.979 323.42C345.979 323.42 329.589 264.23 327.809 251.37C324.349 226.35 346.589 191.04 346.589 164.16H321.069V164.17Z" fill="white"/>
<path d="M341.058 337.15L348.668 331.61C348.948 331.41 349.308 331.44 349.548 331.68L354.798 337.07C355.338 337.63 355.238 338.61 354.588 339.06C351.898 340.95 350.508 341.72 347.168 344.15C345.108 345.65 341.008 348.96 338.168 351.03C335.388 353.05 333.128 350.4 334.128 349.28C338.608 344.28 339.548 341.18 340.238 338.38C340.368 337.87 340.658 337.43 341.068 337.14L341.058 337.15Z" fill="#006A67"/>
<path d="M335.071 330.74L348.301 324.69L346.611 319.3L332.441 325.76L335.071 330.74Z" fill="#006A67"/>
<path d="M327.56 114.41C326.46 111.57 316.9 108.45 312.11 107.37L310 123.14C310 123.14 317.83 134.4 321.27 133.46C325.33 132.36 329.91 120.5 327.56 114.41Z" fill="#006A67"/>
<path opacity="0.4" d="M327.56 114.41C326.46 111.57 316.9 108.45 312.11 107.37L310 123.14C310 123.14 317.83 134.4 321.27 133.46C325.33 132.36 329.91 120.5 327.56 114.41Z" fill="black"/>
<path d="M317.07 113.61C317.07 113.61 313.08 115.02 321.07 164.17H355.09C354.52 150.32 354.5 141.79 361.12 113.37C361.12 113.37 353.99 111.82 346.67 111.47C340.95 111.19 336.26 111.01 331.22 111.47C324.59 112.08 317.06 113.62 317.06 113.62L317.07 113.61Z" fill="#006A67"/>
<path opacity="0.4" d="M317.07 113.61C317.07 113.61 313.08 115.02 321.07 164.17H355.09C354.52 150.32 354.5 141.79 361.12 113.37C361.12 113.37 353.99 111.82 346.67 111.47C340.95 111.19 336.26 111.01 331.22 111.47C324.59 112.08 317.06 113.62 317.06 113.62L317.07 113.61Z" fill="black"/>
<path d="M355.599 162.17L357.129 165.22C357.249 165.46 356.969 165.7 356.579 165.7H320.899C320.589 165.7 320.339 165.55 320.319 165.36L320.009 162.31C319.989 162.1 320.249 161.92 320.589 161.92H355.039C355.289 161.92 355.519 162.02 355.589 162.18L355.599 162.17Z" fill="#006A67"/>
<path opacity="0.3" d="M355.599 162.17L357.129 165.22C357.249 165.46 356.969 165.7 356.579 165.7H320.899C320.589 165.7 320.339 165.55 320.319 165.36L320.009 162.31C319.989 162.1 320.249 161.92 320.589 161.92H355.039C355.289 161.92 355.519 162.02 355.589 162.18L355.599 162.17Z" fill="white"/>
<path d="M350.97 166.02H351.89C352.07 166.02 352.21 165.93 352.2 165.81L351.77 161.85C351.76 161.73 351.6 161.64 351.41 161.64H350.49C350.31 161.64 350.17 161.73 350.18 161.85L350.61 165.81C350.62 165.93 350.78 166.02 350.97 166.02Z" fill="#006A67"/>
<path d="M328.611 166.02H329.531C329.711 166.02 329.851 165.93 329.841 165.81L329.411 161.85C329.401 161.73 329.241 161.64 329.051 161.64H328.131C327.951 161.64 327.811 161.73 327.821 161.85L328.251 165.81C328.261 165.93 328.421 166.02 328.611 166.02Z" fill="#006A67"/>
</g>
<defs>
<clipPath id="clip0_1003_31190">
<rect width="500" height="372.61" fill="white"/>
</clipPath>
</defs>
</svg>
