<svg width="24" height="24" viewBox="0 0 24 24" fill="none" xmlns="http://www.w3.org/2000/svg">
<mask id="mask0_1891_14160" style="mask-type:alpha" maskUnits="userSpaceOnUse" x="0" y="0" width="24" height="24">
<rect width="24" height="24" fill="#D9D9D9"/>
</mask>
<g mask="url(#mask0_1891_14160)">
<path d="M12.725 18.5L15 17.125L17.275 18.5L16.675 15.9L18.675 14.175L16.05 13.95L15 11.5L13.95 13.95L11.325 14.175L13.325 15.9L12.725 18.5ZM6 14V16H4C3.45 16 2.97917 15.8042 2.5875 15.4125C2.19583 15.0208 2 14.55 2 14V4C2 3.45 2.19583 2.97917 2.5875 2.5875C2.97917 2.19583 3.45 2 4 2H14C14.55 2 15.0208 2.19583 15.4125 2.5875C15.8042 2.97917 16 3.45 16 4V6H14V4H4V14H6ZM10 22C9.45 22 8.97917 21.8042 8.5875 21.4125C8.19583 21.0208 8 20.55 8 20V10C8 9.45 8.19583 8.97917 8.5875 8.5875C8.97917 8.19583 9.45 8 10 8H20C20.55 8 21.0208 8.19583 21.4125 8.5875C21.8042 8.97917 22 9.45 22 10V20C22 20.55 21.8042 21.0208 21.4125 21.4125C21.0208 21.8042 20.55 22 20 22H10ZM10 20H20V10H10V20Z" fill="white"/>
</g>
</svg>
