<svg width="48" height="48" viewBox="0 0 48 48" fill="none" xmlns="http://www.w3.org/2000/svg">
<path d="M21.2492 34L20.8492 30.8C20.6326 30.7167 20.4284 30.6167 20.2367 30.5C20.0451 30.3833 19.8576 30.2583 19.6742 30.125L16.6992 31.375L13.9492 26.625L16.5242 24.675C16.5076 24.5583 16.4992 24.4458 16.4992 24.3375V23.6625C16.4992 23.5542 16.5076 23.4417 16.5242 23.325L13.9492 21.375L16.6992 16.625L19.6742 17.875C19.8576 17.7417 20.0492 17.6167 20.2492 17.5C20.4492 17.3833 20.6492 17.2833 20.8492 17.2L21.2492 14H26.7492L27.1492 17.2C27.3659 17.2833 27.5701 17.3833 27.7617 17.5C27.9534 17.6167 28.1409 17.7417 28.3242 17.875L31.2992 16.625L34.0492 21.375L31.4742 23.325C31.4909 23.4417 31.4992 23.5542 31.4992 23.6625V24.3375C31.4992 24.4458 31.4826 24.5583 31.4492 24.675L34.0242 26.625L31.2742 31.375L28.3242 30.125C28.1409 30.2583 27.9492 30.3833 27.7492 30.5C27.5492 30.6167 27.3492 30.7167 27.1492 30.8L26.7492 34H21.2492ZM22.9992 32H24.9742L25.3242 29.35C25.8409 29.2167 26.3201 29.0208 26.7617 28.7625C27.2034 28.5042 27.6076 28.1917 27.9742 27.825L30.4492 28.85L31.4242 27.15L29.2742 25.525C29.3576 25.2917 29.4159 25.0458 29.4492 24.7875C29.4826 24.5292 29.4992 24.2667 29.4992 24C29.4992 23.7333 29.4826 23.4708 29.4492 23.2125C29.4159 22.9542 29.3576 22.7083 29.2742 22.475L31.4242 20.85L30.4492 19.15L27.9742 20.2C27.6076 19.8167 27.2034 19.4958 26.7617 19.2375C26.3201 18.9792 25.8409 18.7833 25.3242 18.65L24.9992 16H23.0242L22.6742 18.65C22.1576 18.7833 21.6784 18.9792 21.2367 19.2375C20.7951 19.4958 20.3909 19.8083 20.0242 20.175L17.5492 19.15L16.5742 20.85L18.7242 22.45C18.6409 22.7 18.5826 22.95 18.5492 23.2C18.5159 23.45 18.4992 23.7167 18.4992 24C18.4992 24.2667 18.5159 24.525 18.5492 24.775C18.5826 25.025 18.6409 25.275 18.7242 25.525L16.5742 27.15L17.5492 28.85L20.0242 27.8C20.3909 28.1833 20.7951 28.5042 21.2367 28.7625C21.6784 29.0208 22.1576 29.2167 22.6742 29.35L22.9992 32ZM24.0492 27.5C25.0159 27.5 25.8409 27.1583 26.5242 26.475C27.2076 25.7917 27.5492 24.9667 27.5492 24C27.5492 23.0333 27.2076 22.2083 26.5242 21.525C25.8409 20.8417 25.0159 20.5 24.0492 20.5C23.0659 20.5 22.2367 20.8417 21.5617 21.525C20.8867 22.2083 20.5492 23.0333 20.5492 24C20.5492 24.9667 20.8867 25.7917 21.5617 26.475C22.2367 27.1583 23.0659 27.5 24.0492 27.5Z" fill="#3F4948"/>
</svg>
