<svg width="20" height="20" viewBox="0 0 20 20" fill="none" xmlns="http://www.w3.org/2000/svg">
<mask id="mask0_2040_10279" style="mask-type:alpha" maskUnits="userSpaceOnUse" x="0" y="0" width="20" height="20">
<rect width="20" height="20" fill="#D9D9D9"/>
</mask>
<g mask="url(#mask0_2040_10279)">
<path d="M9.9987 18.334L9.58203 10.0007L6.66537 9.16732H0.832031V7.50065H5.83203L11.6654 3.33398L12.7487 4.60482L9.29037 7.08398H11.6654L18.1654 3.33398L19.1654 4.50065L12.082 10.0007L11.6654 18.334H9.9987ZM4.9987 6.66732C4.54036 6.66732 4.148 6.50412 3.82161 6.17773C3.49523 5.85135 3.33203 5.45898 3.33203 5.00065C3.33203 4.54232 3.49523 4.14996 3.82161 3.82357C4.148 3.49718 4.54036 3.33398 4.9987 3.33398C5.45703 3.33398 5.84939 3.49718 6.17578 3.82357C6.50217 4.14996 6.66537 4.54232 6.66537 5.00065C6.66537 5.45898 6.50217 5.85135 6.17578 6.17773C5.84939 6.50412 5.45703 6.66732 4.9987 6.66732Z" fill="#006A67"/>
</g>
</svg>
