<svg width="80" height="80" viewBox="0 0 80 80" fill="none" xmlns="http://www.w3.org/2000/svg">
<path d="M40.0055 71.6663C35.6255 71.6663 31.5086 70.8352 27.6547 69.173C23.8008 67.5108 20.4486 65.2549 17.598 62.4055C14.7475 59.5561 12.4905 56.2052 10.8272 52.353C9.1644 48.5008 8.33301 44.385 8.33301 40.0055C8.33301 35.6255 9.1644 31.5086 10.8272 27.6547C12.4894 23.8008 14.7455 20.4486 17.5955 17.598C20.4455 14.7475 23.7969 12.4905 27.6497 10.8272C31.5024 9.1644 35.6191 8.33301 39.9997 8.33301C43.5108 8.33301 46.833 8.86079 49.9663 9.91634C53.0997 10.9719 55.9741 12.4441 58.5897 14.333L54.9738 18.0322C52.82 16.5488 50.4869 15.3949 47.9747 14.5705C45.4625 13.7455 42.8041 13.333 39.9997 13.333C32.6108 13.333 26.3191 15.9302 21.1247 21.1247C15.9302 26.3191 13.333 32.6108 13.333 39.9997C13.333 47.3886 15.9302 53.6802 21.1247 58.8747C26.3191 64.0691 32.6108 66.6663 39.9997 66.6663C47.3886 66.6663 53.6802 64.0691 58.8747 58.8747C64.0691 53.6802 66.6663 47.3886 66.6663 39.9997C66.6663 38.8286 66.5894 37.6705 66.4355 36.5255C66.2816 35.3805 66.0508 34.2672 65.743 33.1855L69.7813 29.1155C70.3924 30.8288 70.8594 32.5916 71.1822 34.4038C71.5049 36.2155 71.6663 38.0808 71.6663 39.9997C71.6663 44.3802 70.8352 48.4969 69.173 52.3497C67.5108 56.2024 65.2549 59.5538 62.4055 62.4038C59.5561 65.2538 56.2052 67.5099 52.353 69.1722C48.5008 70.8349 44.385 71.6663 40.0055 71.6663ZM35.2688 54.1788L22.2563 41.1663L25.7688 37.6538L35.2688 47.1538L68.1538 14.218L71.6663 17.7305L35.2688 54.1788Z" fill="#006A67"/>
</svg>
