<svg width="24" height="24" viewBox="0 0 24 24" fill="none" xmlns="http://www.w3.org/2000/svg">
<g clip-path="url(#clip0_189_22883)">
<path d="M9.07422 16.2502L11.9992 14.4752L14.9242 16.2502L14.1492 12.9252L16.7492 10.6752L13.3242 10.4002L11.9992 7.2502L10.6742 10.4002L7.24922 10.6752L9.84922 12.9252L9.07422 16.2502ZM11.9992 23.3002L8.64922 20.0002H3.99922V15.3502L0.699219 12.0002L3.99922 8.6502V4.0002H8.64922L11.9992 0.700195L15.3492 4.0002H19.9992V8.6502L23.2992 12.0002L19.9992 15.3502V20.0002H15.3492L11.9992 23.3002ZM11.9992 20.5002L14.4992 18.0002H17.9992V14.5002L20.4992 12.0002L17.9992 9.5002V6.0002H14.4992L11.9992 3.5002L9.49922 6.0002H5.99922V9.5002L3.49922 12.0002L5.99922 14.5002V18.0002H9.49922L11.9992 20.5002Z" fill="#3F4948"/>
</g>
<defs>
<clipPath id="clip0_189_22883">
<rect width="24" height="24" fill="white"/>
</clipPath>
</defs>
</svg>
